<svg xmlns="http://www.w3.org/2000/svg" xmlns:xlink="http://www.w3.org/1999/xlink" viewBox="0 0 153.93 147.69">
  <defs>
    <linearGradient id="Degradado_sin_nombre_93" data-name="Degradado sin nombre 93" x1="28.42" y1="115.82" x2="28.42" y2="2.58" gradientUnits="userSpaceOnUse">
      <stop offset="0.28" stop-color="#e5c5cf"/>
      <stop offset="0.48" stop-color="#e0b4ba"/>
      <stop offset="0.88" stop-color="#d48984"/>
      <stop offset="0.91" stop-color="#d38580"/>
    </linearGradient>
    <linearGradient id="Degradado_sin_nombre_93-2" x1="97.96" y1="147.69" x2="97.96" y2="0" xlink:href="#Degradado_sin_nombre_93"/>
  </defs>
  <title>15</title>
  <g id="Capa_2" data-name="Capa 2">
    <g id="Capa_1-2" data-name="Capa 1">
      <g>
        <path d="M56.84,2.58,23.47,115.82H4.74L32.29,22.6a119.29,119.29,0,0,1-13.56,6.57Q11.18,32.29,0,35.74l.65-4.52a135.55,135.55,0,0,0,22.92-8.94,123.4,123.4,0,0,0,16.26-9.9q6.89-5.06,12.7-9.8Z" style="fill: url(#Degradado_sin_nombre_93)"/>
        <path d="M151.35,0l2.58,1.51a50.91,50.91,0,0,1-12.27,17.22,25.17,25.17,0,0,1-17.22,6.46A18.12,18.12,0,0,1,116.15,23q-4.2-2.16-8.18-4.1a11.88,11.88,0,0,0-7.43-1.29L76.43,67A64.59,64.59,0,0,1,90.1,61.57a63.74,63.74,0,0,1,16.47-1.94q17.22,0,25.08,7a22.53,22.53,0,0,1,7.86,17.55,41,41,0,0,1-6.46,22.71,64.17,64.17,0,0,1-17.12,17.55A110.23,110.23,0,0,1,92.36,137a151.68,151.68,0,0,1-26,7.64,158.76,158.76,0,0,1-24.33,3l1.08-3.88a92,92,0,0,0,25.62-3.87,92.71,92.71,0,0,0,24.76-11.31A61.65,61.65,0,0,0,112,110.12a46.22,46.22,0,0,0,7.1-25.51,17.87,17.87,0,0,0-5.27-13.35q-5.28-5.17-17.33-5.17a61.73,61.73,0,0,0-9.69,1,58.33,58.33,0,0,0-14.21,4.85L70.4,70.83,102.69,4.31a25,25,0,0,1,9.91,1q4.08,1.41,8.82,2.91a40.35,40.35,0,0,0,12.06,1.51,23.41,23.41,0,0,0,10-2.16A18.34,18.34,0,0,0,151.35,0Z" style="fill: url(#Degradado_sin_nombre_93-2)"/>
      </g>
    </g>
  </g>
</svg>
