<svg xmlns="http://www.w3.org/2000/svg" viewBox="0 0 13.58 17.25">
  <title>icon-copy</title>
  <g id="Capa_2" data-name="Capa 2">
    <g id="Capa_1-2" data-name="Capa 1">
      <g>
        <path d="M10.37,0H4.9A1.52,1.52,0,0,0,3.39,1.51V12.92A1.52,1.52,0,0,0,4.9,14.43h7.17a1.52,1.52,0,0,0,1.51-1.51V3.2Zm-.19,3.46V.92l2.55,2.54Z" style="fill: #754d44"/>
        <path d="M2.55,12.92V2.55H1.48A1.48,1.48,0,0,0,0,4V15.77a1.48,1.48,0,0,0,1.48,1.48H9.55A1.48,1.48,0,0,0,11,15.77v-.5H4.9A2.35,2.35,0,0,1,2.55,12.92Z" style="fill: #754d44"/>
      </g>
    </g>
  </g>
</svg>
