<svg xmlns="http://www.w3.org/2000/svg" viewBox="0 0 44.79 37.68">
  <title>icon-music-pause2</title>
  <g id="Capa_2" data-name="Capa 2">
    <g id="Capa_1-2" data-name="Capa 1">
      <g>
        <path d="M37.28,27.6,37.58,0,13.74,2.09l-.24,24.4h0a8.23,8.23,0,0,0-5.71-2.28C3.52,24.17,0,27.15,0,30.87s3.39,6.76,7.66,6.81A7.71,7.71,0,0,0,15,33.13h0c.11,0,.21-.37.29-1A6.12,6.12,0,0,0,15.44,31v-.09c.48-6.35.24-24.18.24-24.18L35,4.85,35,23.27a8.3,8.3,0,0,0-5.39-2c-4.27,0-7.75,2.94-7.79,6.66s3.39,6.76,7.65,6.8,7.75-2.93,7.79-6.65c0-.17,0-.33,0-.5Z" style="fill: #332323"/>
        <polygon points="44.79 31.78 42.99 37.05 3.62 5.32 5.42 0.04 44.79 31.78" style="fill: #332323"/>
      </g>
    </g>
  </g>
</svg>
