<svg id="PRINT" xmlns="http://www.w3.org/2000/svg" xmlns:xlink="http://www.w3.org/1999/xlink" viewBox="0 0 345.88 337.41">
  <defs>
    <clipPath id="clip-path">
      <rect x="1.77" y="-2.82" width="345.18" height="340.94" style="fill: none"/>
    </clipPath>
  </defs>
  <title>inf-der</title>
  <rect x="-274.37" y="-567.89" width="623.62" height="870.24" style="fill: none"/>
  <g style="clip-path: url(#clip-path)">
    <g style="opacity: 0.4">
      <path d="M183.82,151.09c-17.18-19.54-69.13-28.28-102.08-8-22.3,13.7-30.42,42.07-17.34,64.74a37.91,37.91,0,0,0,51.79,13.86,30.33,30.33,0,0,0,11.09-41.43,24.26,24.26,0,0,0-33.14-8.87A19.41,19.41,0,0,0,87,197.87" style="fill: none;stroke: #a37162;stroke-linecap: round;stroke-linejoin: round;stroke-width: 2.1775700000000002px"/>
      <path d="M439.44,282.66c-106,22.69-204.06-49.55-216.85-111.47A91.56,91.56,0,0,1,293.73,63a73.26,73.26,0,0,1,86.57,56.91,58.6,58.6,0,0,1-45.53,69.26,46.9,46.9,0,0,1-55.41-36.42,37.52,37.52,0,0,1,29.15-44.33A30,30,0,0,1,344,131.71a24,24,0,0,1-18.65,28.37,19.21,19.21,0,0,1-22.7-14.92A15.35,15.35,0,0,1,314.56,127" style="fill: none;stroke: #a37162;stroke-linecap: round;stroke-linejoin: round;stroke-width: 2.1775700000000002px"/>
      <path d="M377.81,553.64c19.28-117.49-65.16-221.23-133.76-232a100.57,100.57,0,0,0-115,83.77,80.46,80.46,0,0,0,67,92,64.37,64.37,0,0,0,73.57-53.61,51.5,51.5,0,0,0-42.89-58.86,41.21,41.21,0,0,0-47.09,34.32,33,33,0,0,0,27.45,37.66,26.37,26.37,0,0,0,30.14-22,21.09,21.09,0,0,0-17.57-24.1,16.87,16.87,0,0,0-19.29,14.05" style="fill: none;stroke: #a37162;stroke-linecap: round;stroke-linejoin: round;stroke-width: 2.1775700000000002px"/>
      <path d="M308.93,303c-45.55,26.17-113.38,21.91-145.85-7.25a62.85,62.85,0,0,1-4.56-89.06A50.86,50.86,0,0,1,230.11,203,40.21,40.21,0,0,1,233,260a32.56,32.56,0,0,1-45.82,2.35,25.74,25.74,0,0,1-1.86-36.48" style="fill: none;stroke: #a37162;stroke-linecap: round;stroke-linejoin: round;stroke-width: 2.1775700000000002px"/>
      <path d="M198,323.69c-43.72-29.13-111.68-29.38-146-2.43a62.71,62.71,0,0,0-20,27.06" style="fill: none;stroke: #a37162;stroke-linecap: round;stroke-linejoin: round;stroke-width: 2.1775700000000002px"/>
      <path d="M236.76,203c-33.51-15.72-65.63-63.41-61.91-93.93a44.16,44.16,0,0,1,9-21.9" style="fill: none;stroke: #a37162;stroke-linecap: round;stroke-linejoin: round;stroke-width: 2.1775700000000002px"/>
      <g>
        <path d="M39.85,348.21c2.4-2.86,13.06-7.43,19.78-9.54,4.82-1.51,12.74-3.56,14.71,3.21,3.07,10.46-22.26,9.47-27.44,9.69-1.32.06-7.56.14-7.83-1.79C39,349.28,39.39,348.77,39.85,348.21Z" style="fill: #f1a690"/>
        <path d="M40.12,349.24c.8-3.64,8.12-12.63,13.11-17.62,3.57-3.57,9.63-9.05,14.52-4,7.56,7.85-15.34,18.71-19.83,21.31-1.14.66-6.64,3.62-7.77,2A2.3,2.3,0,0,1,40.12,349.24Z" style="fill: #f9d9d1"/>
        <path d="M37.1,347.73c-.23-3.72,4.36-14.38,7.79-20.53,2.46-4.41,6.8-11.34,12.89-7.79,9.42,5.49-9.65,22.19-13.26,25.91-.92.95-5.39,5.3-6.91,4.08A2.29,2.29,0,0,1,37.1,347.73Z" style="fill: #f1a690"/>
        <path d="M35.31,349.43c-3.66-.68-12.89-7.71-18-12.52-3.69-3.46-9.37-9.34-4.45-14.39,7.6-7.81,19.21,14.72,21.94,19.12.7,1.12,3.84,6.51,2.29,7.69A2.29,2.29,0,0,1,35.31,349.43Z" style="fill: #f7ccc0"/>
        <path d="M33.9,352.5c-3.71.34-14.51-3.89-20.77-7.12C8.64,343.06,1.57,339,4.92,332.75c5.18-9.59,22.5,8.92,26.33,12.4,1,.89,5.47,5.22,4.3,6.78A2.31,2.31,0,0,1,33.9,352.5Z" style="fill: #f1a690"/>
        <path d="M38.17,348.59c-2-3.12-3.36-14.64-3.44-21.69,0-5,.27-13.22,7.31-13.16,10.9.08,2.66,24.05,1.38,29.07-.33,1.28-2.05,7.28-4,7C39,349.71,38.57,349.2,38.17,348.59Z" style="fill: #f7ccc0"/>
        <path d="M35,349.69c-2.82-2.44-7.23-13.16-9.23-19.92-1.44-4.84-3.36-12.79,3.43-14.66,10.51-2.9,9.13,22.41,9.27,27.59,0,1.32,0,7.56-1.92,7.8C36,350.56,35.53,350.17,35,349.69Z" style="fill: #f9d9d1"/>
      </g>
      <g>
        <path d="M189.3,85.51c2.35-1.6,11.14-2.74,16.53-2.88,3.86-.11,10.1,0,10.15,5.42.06,8.34-18.35,2.32-22.21,1.4-1-.23-5.58-1.47-5.37-3C188.45,86.12,188.83,85.82,189.3,85.51Z" style="fill: #f7ccc0"/>
        <path d="M188.42,83.08c1.83-2.18,10-5.68,15.11-7.29,3.69-1.15,9.73-2.72,11.25,2.45,2.34,8-17,7.25-21,7.41-1,0-5.78.11-6-1.37C187.77,83.9,188.06,83.51,188.42,83.08Z" style="fill: #f1a690"/>
        <path d="M184.9,86.17c-2.36,1.6-11.15,2.74-16.53,2.88-3.86.1-10.11,0-10.15-5.43-.06-8.33,18.35-2.32,22.2-1.4,1,.24,5.59,1.48,5.38,3C185.75,85.55,185.36,85.85,184.9,86.17Z" style="fill: #f9d9d1"/>
        <path d="M185.78,88.59c-1.83,2.19-10,5.68-15.11,7.29C167,97,160.93,98.6,159.42,93.44c-2.34-8,17-7.25,21-7.41,1,0,5.77-.11,6,1.37C186.43,87.78,186.14,88.17,185.78,88.59Z" style="fill: #f1a690"/>
        <path d="M184.6,88.82c-.61,2.79-6.21,9.66-10,13.47-2.73,2.73-7.36,6.92-11.1,3-5.77-6,11.73-14.31,15.16-16.29.87-.5,5.07-2.77,5.93-1.55A1.75,1.75,0,0,1,184.6,88.82Z" style="fill: #f7ccc0"/>
        <path d="M186.91,90c.17,2.85-3.34,11-6,15.69-1.88,3.37-5.19,8.67-9.85,6-7.19-4.2,7.38-17,10.13-19.81.71-.72,4.13-4,5.29-3.12A1.75,1.75,0,0,1,186.91,90Z" style="fill: #f1a690"/>
        <path d="M188.62,83.87c.61-2.78,6.21-9.65,10-13.46,2.72-2.73,7.36-6.92,11.1-3,5.77,6-11.73,14.3-15.16,16.28-.87.51-5.07,2.77-5.93,1.56A1.73,1.73,0,0,1,188.62,83.87Z" style="fill: #f9d9d1"/>
        <path d="M186.31,82.71c-.17-2.84,3.33-11,6-15.68,1.88-3.38,5.19-8.67,9.85-6,7.19,4.2-7.38,17-10.14,19.81-.7.72-4.12,4.05-5.28,3.11A1.74,1.74,0,0,1,186.31,82.71Z" style="fill: #f1a690"/>
        <path d="M185,84c-2.8-.51-9.86-5.88-13.79-9.57-2.82-2.63-7.16-7.13-3.4-11,5.81-6,14.68,11.25,16.77,14.61.54.86,2.94,5,1.75,5.88A1.68,1.68,0,0,1,185,84Z" style="fill: #f7ccc0"/>
        <path d="M183.86,86.36c-2.83.27-11.08-3-15.87-5.44-3.43-1.77-8.83-4.91-6.28-9.65,4-7.33,17.2,6.81,20.13,9.48.75.68,4.18,4,3.29,5.18A1.79,1.79,0,0,1,183.86,86.36Z" style="fill: #f1a690"/>
        <path d="M189.08,88c2.8.52,9.85,5.89,13.78,9.57,2.82,2.64,7.16,7.13,3.41,11-5.81,6-14.69-11.25-16.78-14.61-.53-.86-2.93-5-1.75-5.88A1.79,1.79,0,0,1,189.08,88Z" style="fill: #f1a690"/>
        <path d="M190.16,85.69c2.84-.26,11.09,3,15.88,5.45,3.43,1.76,8.83,4.9,6.27,9.64-4,7.33-17.19-6.81-20.13-9.47-.74-.68-4.18-4-3.28-5.18C189.12,85.82,189.61,85.75,190.16,85.69Z" style="fill: #f9d9d1"/>
        <path d="M187.32,88.71c1.56,2.38,2.56,11.19,2.63,16.58,0,3.86-.2,10.1-5.59,10.06-8.33-.06-2-18.38-1.05-22.22.25-1,1.56-5.56,3-5.33C186.72,87.86,187,88.25,187.32,88.71Z" style="fill: #f9d9d1"/>
        <path d="M189.76,87.87c2.15,1.87,5.52,10.06,7.05,15.23,1.1,3.7,2.57,9.77-2.62,11.2-8,2.22-7-17.13-7.08-21.09,0-1,0-5.77,1.46-5.95C189,87.21,189.34,87.51,189.76,87.87Z" style="fill: #f7ccc0"/>
        <path d="M187.13,83.37c-1.56-2.38-2.57-11.18-2.63-16.57,0-3.86.2-10.1,5.59-10.06,8.33.06,2,18.38,1,22.22-.25,1-1.56,5.56-3,5.33C187.73,84.23,187.44,83.84,187.13,83.37Z" style="fill: #f7ccc0"/>
        <path d="M184.69,84.22c-2.16-1.87-5.53-10.07-7.06-15.23-1.09-3.7-2.56-9.77,2.63-11.21,8-2.21,7,17.13,7.08,21.09,0,1,0,5.78-1.46,6C185.5,84.88,185.11,84.58,184.69,84.22Z" style="fill: #f9d9d1"/>
        <path d="M185.85,92.58a6.92,6.92,0,1,1,7.48-6.3A6.91,6.91,0,0,1,185.85,92.58Z" style="fill: #c29e95"/>
      </g>
      <g>
        <path d="M140.47,212.92c2-1.34,9.36-2.3,13.88-2.42,3.24-.09,8.48,0,8.52,4.55,0,7-15.4,1.95-18.64,1.18-.82-.2-4.69-1.24-4.51-2.48C139.76,213.43,140.09,213.18,140.47,212.92Z" style="fill: #f7ccc0"/>
        <path d="M139.74,210.88c1.53-1.83,8.37-4.77,12.68-6.12,3.09-1,8.17-2.28,9.44,2.06,2,6.71-14.28,6.08-17.6,6.22-.85,0-4.85.09-5-1.15C139.19,211.57,139.44,211.24,139.74,210.88Z" style="fill: #f1a690"/>
        <path d="M136.79,213.47c-2,1.34-9.36,2.3-13.88,2.42-3.24.09-8.48,0-8.52-4.56,0-7,15.41-1.94,18.64-1.17.82.2,4.69,1.24,4.51,2.48C137.5,213,137.17,213.21,136.79,213.47Z" style="fill: #f9d9d1"/>
        <path d="M137.52,215.51c-1.53,1.83-8.37,4.76-12.68,6.12-3.09,1-8.17,2.28-9.44-2.06-2-6.71,14.29-6.08,17.61-6.22.84,0,4.84-.09,5,1.15C138.07,214.82,137.83,215.15,137.52,215.51Z" style="fill: #f1a690"/>
        <path d="M136.53,215.7c-.51,2.34-5.21,8.1-8.4,11.3-2.29,2.29-6.18,5.81-9.32,2.55-4.85-5,9.84-12,12.72-13.67.73-.42,4.26-2.32,5-1.3A1.46,1.46,0,0,1,136.53,215.7Z" style="fill: #f7ccc0"/>
        <path d="M138.47,216.67c.15,2.39-2.8,9.22-5,13.17-1.58,2.83-4.36,7.27-8.26,5-6-3.52,6.18-14.24,8.5-16.63.59-.6,3.46-3.39,4.43-2.61A1.49,1.49,0,0,1,138.47,216.67Z" style="fill: #f1a690"/>
        <path d="M139.91,211.54c.51-2.33,5.21-8.1,8.4-11.3,2.29-2.29,6.18-5.8,9.32-2.55,4.85,5-9.84,12-12.72,13.67-.73.42-4.26,2.33-5,1.31A1.48,1.48,0,0,1,139.91,211.54Z" style="fill: #f9d9d1"/>
        <path d="M138,210.57c-.15-2.38,2.8-9.22,5-13.16,1.58-2.83,4.36-7.28,8.26-5,6.05,3.52-6.18,14.23-8.5,16.62-.59.61-3.46,3.4-4.43,2.62A1.5,1.5,0,0,1,138,210.57Z" style="fill: #f1a690"/>
        <path d="M136.82,211.66c-2.35-.43-8.27-4.94-11.57-8-2.36-2.21-6-6-2.85-9.23,4.88-5,12.32,9.45,14.08,12.27.44.72,2.46,4.18,1.47,4.93A1.46,1.46,0,0,1,136.82,211.66Z" style="fill: #f7ccc0"/>
        <path d="M135.92,213.63c-2.38.23-9.31-2.49-13.33-4.56-2.88-1.49-7.41-4.12-5.26-8.1,3.32-6.15,14.43,5.72,16.89,7.95.62.57,3.51,3.35,2.76,4.35C136.79,213.53,136.38,213.59,135.92,213.63Z" style="fill: #f1a690"/>
        <path d="M140.29,215c2.35.44,8.27,4.94,11.57,8,2.37,2.22,6,6,2.86,9.23-4.88,5-12.32-9.44-14.08-12.26-.45-.72-2.46-4.18-1.47-4.94A1.53,1.53,0,0,1,140.29,215Z" style="fill: #f1a690"/>
        <path d="M141.2,213.07c2.38-.22,9.31,2.5,13.32,4.57,2.88,1.48,7.42,4.12,5.27,8.1-3.32,6.15-14.43-5.72-16.89-8-.63-.57-3.51-3.34-2.76-4.34C140.33,213.18,140.74,213.12,141.2,213.07Z" style="fill: #f9d9d1"/>
        <path d="M138.81,215.61c1.32,2,2.16,9.39,2.21,13.91,0,3.24-.17,8.48-4.69,8.44-7-.05-1.7-15.43-.88-18.65.21-.82,1.31-4.67,2.55-4.47C138.31,214.89,138.56,215.22,138.81,215.61Z" style="fill: #f9d9d1"/>
        <path d="M140.86,214.9c1.81,1.56,4.64,8.45,5.92,12.78.92,3.11,2.16,8.2-2.2,9.4-6.74,1.86-5.85-14.37-5.94-17.7,0-.84,0-4.84,1.23-5A1.49,1.49,0,0,1,140.86,214.9Z" style="fill: #f7ccc0"/>
        <path d="M138.66,211.13c-1.31-2-2.16-9.39-2.21-13.91,0-3.24.17-8.48,4.69-8.45,7,0,1.71,15.43.88,18.65-.21.82-1.31,4.67-2.54,4.48C139.16,211.85,138.91,211.52,138.66,211.13Z" style="fill: #f7ccc0"/>
        <path d="M136.61,211.83c-1.81-1.56-4.64-8.44-5.92-12.78-.92-3.1-2.16-8.2,2.2-9.4,6.74-1.86,5.86,14.38,5.94,17.7,0,.84,0,4.85-1.22,5C137.29,212.39,137,212.14,136.61,211.83Z" style="fill: #f9d9d1"/>
        <path d="M137.58,218.85a5.8,5.8,0,1,1,6.28-5.28A5.8,5.8,0,0,1,137.58,218.85Z" style="fill: #c29e95"/>
      </g>
      <g>
        <path d="M343.45,42.91c3.23-2.2,15.29-3.76,22.68-4,5.29-.14,13.86.06,13.92,7.44.09,11.43-25.17,3.19-30.46,1.92-1.34-.32-7.66-2-7.37-4.05C342.29,43.75,342.82,43.34,343.45,42.91Z" style="fill: #f7ccc0"/>
        <path d="M342.24,39.57c2.52-3,13.69-7.79,20.74-10,5-1.59,13.35-3.73,15.42,3.36,3.21,11-23.34,9.93-28.77,10.16-1.38.06-7.92.14-8.2-1.88C341.36,40.7,341.75,40.16,342.24,39.57Z" style="fill: #f1a690"/>
        <path d="M337.42,43.8c-3.23,2.2-15.29,3.76-22.67,4-5.3.14-13.86-.06-13.92-7.44-.09-11.43,25.17-3.19,30.45-1.92,1.35.32,7.66,2,7.38,4.05C338.59,43,338.06,43.38,337.42,43.8Z" style="fill: #f9d9d1"/>
        <path d="M338.63,47.14c-2.51,3-13.68,7.79-20.73,10-5.06,1.59-13.35,3.73-15.43-3.35-3.21-11,23.35-9.94,28.78-10.17,1.38-.06,7.92-.14,8.2,1.88C339.52,46,339.12,46.55,338.63,47.14Z" style="fill: #f1a690"/>
        <path d="M337,47.45c-.84,3.82-8.52,13.24-13.74,18.47-3.74,3.74-10.1,9.49-15.23,4.17-7.92-8.24,16.09-19.62,20.79-22.34,1.2-.69,7-3.8,8.14-2.14A2.42,2.42,0,0,1,337,47.45Z" style="fill: #f7ccc0"/>
        <path d="M340.18,49c.23,3.9-4.58,15.07-8.18,21.52-2.58,4.62-7.12,11.89-13.5,8.17-9.88-5.76,10.11-23.27,13.89-27.17,1-1,5.66-5.56,7.25-4.28A2.46,2.46,0,0,1,340.18,49Z" style="fill: #f1a690"/>
        <path d="M342.52,40.66c.84-3.82,8.52-13.25,13.74-18.47C360,18.45,366.37,12.7,371.49,18c7.92,8.23-16.09,19.62-20.79,22.34-1.2.69-7,3.8-8.14,2.13A2.44,2.44,0,0,1,342.52,40.66Z" style="fill: #f9d9d1"/>
        <path d="M339.35,39.07c-.23-3.9,4.58-15.07,8.18-21.52,2.58-4.62,7.12-11.89,13.51-8.17,9.87,5.76-10.12,23.27-13.9,27.17-1,1-5.65,5.55-7.25,4.27A2.41,2.41,0,0,1,339.35,39.07Z" style="fill: #f1a690"/>
        <path d="M337.48,40.85c-3.84-.71-13.51-8.07-18.9-13.12-3.87-3.62-9.82-9.79-4.67-15.09,8-8.19,20.14,15.44,23,20,.73,1.17,4,6.83,2.4,8.07A2.48,2.48,0,0,1,337.48,40.85Z" style="fill: #f7ccc0"/>
        <path d="M336,44.07c-3.89.36-15.21-4.08-21.77-7.46-4.71-2.43-12.12-6.74-8.61-13.24,5.43-10,23.58,9.35,27.61,13,1,.93,5.73,5.47,4.51,7.11A2.43,2.43,0,0,1,336,44.07Z" style="fill: #f1a690"/>
        <path d="M343.15,46.37c3.85.72,13.52,8.08,18.91,13.13,3.87,3.62,9.82,9.79,4.67,15.08-8,8.19-20.14-15.43-23-20-.73-1.18-4-6.83-2.4-8.07A2.4,2.4,0,0,1,343.15,46.37Z" style="fill: #f1a690"/>
        <path d="M344.64,43.16c3.89-.37,15.21,4.07,21.77,7.46,4.71,2.43,12.12,6.73,8.61,13.23-5.43,10.06-23.59-9.34-27.61-13-1-.93-5.73-5.46-4.51-7.1A2.43,2.43,0,0,1,344.64,43.16Z" style="fill: #f9d9d1"/>
        <path d="M340.74,47.3c2.14,3.26,3.52,15.34,3.6,22.73.06,5.3-.27,13.86-7.66,13.81-11.43-.09-2.79-25.22-1.44-30.49.34-1.34,2.14-7.63,4.16-7.31C339.92,46.12,340.32,46.66,340.74,47.3Z" style="fill: #f9d9d1"/>
        <path d="M344.09,46.14C347,48.7,351.67,60,353.76,67c1.51,5.08,3.53,13.41-3.59,15.37-11,3-9.58-23.5-9.72-28.93,0-1.38,0-7.92,2-8.17C343,45.24,343.51,45.64,344.09,46.14Z" style="fill: #f7ccc0"/>
        <path d="M340.48,40c-2.14-3.27-3.52-15.35-3.6-22.74-.06-5.29.27-13.86,7.66-13.8,11.43.08,2.79,25.21,1.44,30.48-.34,1.34-2.14,7.63-4.16,7.31C341.3,41.15,340.9,40.61,340.48,40Z" style="fill: #f7ccc0"/>
        <path d="M337.13,41.13c-2.95-2.56-7.58-13.8-9.67-20.89-1.51-5.07-3.53-13.4,3.59-15.37,11-3,9.58,23.5,9.72,28.93,0,1.38,0,7.93-2,8.17C338.24,42,337.71,41.63,337.13,41.13Z" style="fill: #f9d9d1"/>
        <path d="M338.72,52.6A9.48,9.48,0,1,1,349,44,9.48,9.48,0,0,1,338.72,52.6Z" style="fill: #c29e95"/>
      </g>
      <path d="M284.08,252.31s15.22-29.67-12.7-49C271.38,203.35,262.56,240.61,284.08,252.31Z" style="fill: #a37162"/>
      <path d="M251,85.9s12.7-12.65-2.7-42.48C248.3,43.42,229.86,86.2,251,85.9Z" style="fill: #a37162"/>
      <path d="M225.4,125.94s6.94-19.47,35.49-7.52C260.89,118.42,230,146.4,225.4,125.94Z" style="fill: #a37162"/>
      <path d="M274.72,67.86S302.34,66,313.3,86C313.3,86,263.49,88,274.72,67.86Z" style="fill: #a37162"/>
      <path d="M222.12,164.21s.25-15.29-21.39-27.71C200.73,136.5,207.19,178.24,222.12,164.21Z" style="fill: #a37162"/>
      <path d="M246.34,214.33s15.56-.78,14.36-36.08C260.7,178.25,222.62,195.4,246.34,214.33Z" style="fill: #a37162"/>
      <path d="M370.88,165.86s-9.59-11.39-25.7,4.13C345.18,170,360.36,181.85,370.88,165.86Z" style="fill: #a37162"/>
      <path d="M342.93,188.1s5.45,10.33-15.72,19.07C327.21,207.17,324.46,190,342.93,188.1Z" style="fill: #a37162"/>
      <path d="M304.37,186.21s8.12-12.68-6.41-23.78C298,162.43,292.27,179.54,304.37,186.21Z" style="fill: #a37162"/>
      <path d="M281.94,160.35a21.86,21.86,0,0,0-13.78-11.74S272.84,168,281.94,160.35Z" style="fill: #a37162"/>
      <path d="M277.75,137.29s3.39-8.69,13.69-5.69C291.44,131.6,282.85,145.65,277.75,137.29Z" style="fill: #a37162"/>
      <path d="M270,316.33s-7.32-17.35-26.09-11.92C243.91,304.41,255.18,324.91,270,316.33Z" style="fill: #a37162"/>
      <path d="M208,317.18s3.56-10.79-15.59-21.4C192.38,295.78,194.91,315.53,208,317.18Z" style="fill: #a37162"/>
      <path d="M242.52,320.66s-1,12.06-18.21,15.34C224.31,336,223.17,318.48,242.52,320.66Z" style="fill: #a37162"/>
      <path d="M163.08,295.77s-13.23,9.57-23.33-8.2C139.75,287.57,153.17,285.29,163.08,295.77Z" style="fill: #a37162"/>
      <path d="M148.38,279.34s15.3-6.08,12-22.74C160.35,256.6,141.94,268.23,148.38,279.34Z" style="fill: #a37162"/>
      <path d="M179,193.25s13-3.64,20.77,10.23C199.75,203.48,173.09,206.48,179,193.25Z" style="fill: #a37162"/>
      <path d="M140.65,258.61s-10.44-1.42-17.92-19C122.73,239.65,146.58,244.86,140.65,258.61Z" style="fill: #a37162"/>
      <path d="M180.8,313.79s-10.43,17.06-25.93,13.1C154.87,326.89,166.05,307.25,180.8,313.79Z" style="fill: #a37162"/>
      <path d="M135.87,302s1.17-13.63-23.81-17.88C112.06,284.15,119.27,304.83,135.87,302Z" style="fill: #a37162"/>
      <path d="M110,301.92s3.16,12.42-13.37,20.51C96.64,322.43,90.83,304,110,301.92Z" style="fill: #a37162"/>
      <path d="M78.46,306.62S69.53,293.71,48.67,303C48.67,303,66.46,317.2,78.46,306.62Z" style="fill: #a37162"/>
      <path d="M182.64,333.49s3.51,16.49-10.78,27.23C171.86,360.72,161.41,342.93,182.64,333.49Z" style="fill: #a37162"/>
      <path d="M189.27,157.35s-23.9,7.81-35.17-8.65C154.1,148.7,178.52,143.05,189.27,157.35Z" style="fill: #a37162"/>
      <path d="M128.74,132.45s2.18,15.68-13.09,21.41C115.65,153.86,112.37,134.57,128.74,132.45Z" style="fill: #a37162"/>
      <path d="M162.75,138.18s3.93-13-18.71-19.91C144,118.27,145.4,135.29,162.75,138.18Z" style="fill: #a37162"/>
      <path d="M86.49,140.8s6.85,10.45-6.17,22.71C80.32,163.51,72.49,148.05,86.49,140.8Z" style="fill: #a37162"/>
      <path d="M110.39,133s-3-13.63-25.14-10.6C85.25,122.39,97.21,138.91,110.39,133Z" style="fill: #a37162"/>
      <path d="M62.73,163.41s-14-.5-17,17.55C45.74,181,61,175.93,62.73,163.41Z" style="fill: #a37162"/>
      <path d="M58.06,193.28s15-2.93,18.33,7.91C76.39,201.19,62.82,203.55,58.06,193.28Z" style="fill: #a37162"/>
      <path d="M72.72,218.11s6.29,8-1,19.23C71.73,237.34,62.35,219.24,72.72,218.11Z" style="fill: #a37162"/>
      <path d="M308.72,264.69s-24.33,25.65-52.32,3.16C256.4,267.85,287.4,248.31,308.72,264.69Z" style="fill: #a37162"/>
      <g>
        <path d="M328.77,312.39c4-2.7,18.81-4.62,27.9-4.87,6.51-.17,17.06.08,17.13,9.16.11,14.07-31,3.92-37.47,2.36-1.66-.39-9.43-2.49-9.08-5C327.34,313.42,328,312.92,328.77,312.39Z" style="fill: #f7ccc0"/>
        <path d="M327.29,308.29c3.09-3.68,16.83-9.58,25.51-12.3,6.21-1.95,16.42-4.59,19,4.13,4,13.5-28.72,12.23-35.4,12.51-1.7.07-9.75.18-10.09-2.32C326.19,309.68,326.68,309,327.29,308.29Z" style="fill: #f1a690"/>
        <path d="M321.35,313.5c-4,2.69-18.81,4.62-27.9,4.86-6.51.18-17.05-.07-17.12-9.16-.12-14.06,31-3.91,37.47-2.36,1.65.4,9.43,2.5,9.07,5C322.78,312.46,322.13,313,321.35,313.5Z" style="fill: #f9d9d1"/>
        <path d="M322.84,317.6c-3.09,3.68-16.84,9.58-25.51,12.3-6.22,2-16.43,4.59-19-4.14-4-13.49,28.72-12.22,35.4-12.5,1.7-.07,9.75-.18,10.09,2.31C323.93,316.21,323.44,316.88,322.84,317.6Z" style="fill: #f1a690"/>
        <path d="M320.85,318c-1,4.7-10.48,16.3-16.91,22.72-4.61,4.61-12.43,11.68-18.73,5.14-9.76-10.14,19.79-24.15,25.57-27.49,1.48-.85,8.56-4.68,10-2.63A3,3,0,0,1,320.85,318Z" style="fill: #f7ccc0"/>
        <path d="M324.74,319.94c.29,4.8-5.63,18.53-10.05,26.47-3.18,5.69-8.77,14.63-16.62,10-12.15-7.08,12.44-28.62,17.09-33.42,1.19-1.22,7-6.84,8.92-5.26A2.91,2.91,0,0,1,324.74,319.94Z" style="fill: #f1a690"/>
        <path d="M327.63,309.62c1-4.69,10.47-16.29,16.9-22.72,4.61-4.6,12.43-11.68,18.73-5.13,9.76,10.13-19.78,24.14-25.57,27.49-1.48.85-8.56,4.67-10,2.62A3,3,0,0,1,327.63,309.62Z" style="fill: #f9d9d1"/>
        <path d="M323.73,307.67c-.29-4.8,5.63-18.54,10.06-26.48,3.17-5.69,8.76-14.63,16.62-10.05,12.14,7.08-12.45,28.63-17.1,33.43-1.19,1.22-7,6.83-8.92,5.26A3,3,0,0,1,323.73,307.67Z" style="fill: #f1a690"/>
        <path d="M321.43,309.87c-4.73-.88-16.63-9.94-23.27-16.16-4.75-4.45-12.07-12-5.74-18.55,9.81-10.08,24.78,19,28.31,24.66.9,1.45,4.95,8.4,2.95,9.93A3,3,0,0,1,321.43,309.87Z" style="fill: #f7ccc0"/>
        <path d="M319.6,313.82c-4.78.45-18.71-5-26.79-9.18-5.79-3-14.91-8.28-10.59-16.28,6.68-12.37,29,11.5,34,16,1.26,1.15,7.06,6.73,5.55,8.74A2.94,2.94,0,0,1,319.6,313.82Z" style="fill: #f1a690"/>
        <path d="M328.4,316.66c4.73.88,16.63,9.94,23.27,16.15,4.75,4.45,12.08,12,5.74,18.55-9.8,10.08-24.78-19-28.31-24.66-.9-1.44-5-8.4-3-9.92A3,3,0,0,1,328.4,316.66Z" style="fill: #f1a690"/>
        <path d="M330.23,312.7c4.79-.45,18.71,5,26.79,9.18,5.79,3,14.91,8.29,10.59,16.28-6.68,12.38-29-11.49-34-16-1.25-1.14-7.05-6.73-5.55-8.74C328.48,312.91,329.29,312.79,330.23,312.7Z" style="fill: #f9d9d1"/>
        <path d="M325.43,317.79c2.64,4,4.33,18.89,4.44,28,.07,6.51-.34,17.05-9.43,17-14.06-.11-3.43-31-1.78-37.5.42-1.65,2.64-9.39,5.12-9C324.42,316.35,324.92,317,325.43,317.79Z" style="fill: #f9d9d1"/>
        <path d="M329.55,316.37c3.64,3.15,9.33,17,11.91,25.7,1.85,6.25,4.33,16.5-4.43,18.91-13.56,3.74-11.78-28.91-11.95-35.59-.05-1.7,0-9.75,2.47-10.05C328.19,315.26,328.84,315.76,329.55,316.37Z" style="fill: #f7ccc0"/>
        <path d="M325.12,308.79c-2.64-4-4.33-18.89-4.44-28-.07-6.51.34-17.05,9.43-17,14.06.11,3.43,31,1.77,37.5-.42,1.65-2.63,9.39-5.12,9C326.12,310.23,325.63,309.57,325.12,308.79Z" style="fill: #f7ccc0"/>
        <path d="M321,310.21c-3.63-3.15-9.32-17-11.9-25.7-1.85-6.25-4.33-16.5,4.43-18.91,13.55-3.74,11.77,28.91,12,35.59,0,1.7,0,9.75-2.47,10.05C322.36,311.32,321.7,310.82,321,310.21Z" style="fill: #f9d9d1"/>
        <path d="M323,324.32a11.67,11.67,0,1,1,12.62-10.63A11.67,11.67,0,0,1,323,324.32Z" style="fill: #c29e95"/>
      </g>
    </g>
  </g>
</svg>
