<svg id="PRINT" xmlns="http://www.w3.org/2000/svg" xmlns:xlink="http://www.w3.org/1999/xlink" viewBox="0 0 232.94 217.41">
  <defs>
    <clipPath id="clip-path">
      <rect x="-0.67" y="-14.12" width="249.88" height="232.94" style="fill: none"/>
    </clipPath>
  </defs>
  <title>inf-izq</title>
  <rect x="3.04" y="-681.53" width="623.62" height="870.24" style="fill: none"/>
  <g style="clip-path: url(#clip-path)">
    <g style="opacity: 0.8">
      <path d="M140.13,92.62c9.43-10.56,10.73-39.21-2.38-55.68-8.88-11.14-24.74-13.66-36.12-5.1a20.65,20.65,0,0,0-4.08,28.9A16.51,16.51,0,0,0,120.66,64a13.21,13.21,0,0,0,2.62-18.49,10.57,10.57,0,0,0-14.8-2.09" style="fill: none;stroke: #a37162;stroke-linecap: round;stroke-linejoin: round;stroke-width: 2.1775700000000002px"/>
      <path d="M85.89,239.4c-19.24-55.78,13.33-113.51,45.94-124.51A49.85,49.85,0,0,1,195,146.2a39.87,39.87,0,0,1-25,50.52,31.9,31.9,0,0,1-40.42-20,25.51,25.51,0,0,1,16-32.34,20.41,20.41,0,0,1,25.86,12.83,16.32,16.32,0,0,1-10.25,20.69,13.07,13.07,0,0,1-16.56-8.21,10.45,10.45,0,0,1,6.57-13.24,8.35,8.35,0,0,1,10.59,5.25" style="fill: none;stroke: #a37162;stroke-linecap: round;stroke-linejoin: round;stroke-width: 2.1775700000000002px"/>
      <path d="M-64.57,224C.18,226.63,50.66,174.17,52,136.4A54.74,54.74,0,0,0-.88,79.82a43.8,43.8,0,0,0-45.27,42.27A35,35,0,0,0-12.33,158.3a28,28,0,0,0,29-27.05A22.43,22.43,0,0,0-5,108.07a17.94,17.94,0,0,0-18.54,17.32A14.35,14.35,0,0,0-9.69,140.22,11.47,11.47,0,0,0,2.17,129.14a9.17,9.17,0,0,0-8.86-9.49" style="fill: none;stroke: #a37162;stroke-linecap: round;stroke-linejoin: round;stroke-width: 2.1775700000000002px"/>
      <path d="M66.3,170.23C49.16,147.34,47,110.42,60.6,91a34.21,34.21,0,0,1,47.82-8.33,27.69,27.69,0,0,1,6.7,38.44,21.9,21.9,0,0,1-30.61,5.33,17.72,17.72,0,0,1-4.28-24.6,14,14,0,0,1,19.58-3.41" style="fill: none;stroke: #a37162;stroke-linecap: round;stroke-linejoin: round;stroke-width: 2.1775700000000002px"/>
      <path d="M47.82,111.66c12.85-25.54,8.51-62.28-8.31-79a34.24,34.24,0,0,0-15.93-9" style="fill: none;stroke: #a37162;stroke-linecap: round;stroke-linejoin: round;stroke-width: 2.1775700000000002px"/>
      <path d="M115.6,124.64C121.89,105.5,145.54,85,162.27,85a24.06,24.06,0,0,1,12.43,3.44" style="fill: none;stroke: #a37162;stroke-linecap: round;stroke-linejoin: round;stroke-width: 2.1775700000000002px"/>
      <g>
        <path d="M22.51,28.66c1.33,1.53,2.9,7.65,3.46,11.44.41,2.72.85,7.15-3,7.64-5.88.77-3.22-12.77-2.9-15.57.08-.71.56-4.08,1.62-4.06C22,28.12,22.25,28.36,22.51,28.66Z" style="fill: #f7ccc0"/>
        <path d="M24.15,27.83c1.7,1.11,4.88,6.56,6.46,10.06,1.13,2.5,2.76,6.64-.76,8.16-5.46,2.34-6.59-11.41-7-14.19-.12-.71-.57-4.07.45-4.35A1.33,1.33,0,0,1,24.15,27.83Z" style="fill: #f1a690"/>
        <path d="M21.67,25.61c-1.33-1.52-2.9-7.64-3.46-11.43-.41-2.72-.85-7.15,3-7.65,5.88-.76,3.22,12.78,2.9,15.58-.08.71-.56,4.07-1.62,4.05C22.17,26.16,21.93,25.91,21.67,25.61Z" style="fill: #f9d9d1"/>
        <path d="M20,26.45c-1.7-1.11-4.88-6.57-6.46-10.06-1.13-2.51-2.76-6.65.76-8.16,5.45-2.34,6.59,11.4,7,14.19.12.71.57,4.07-.45,4.34A1.26,1.26,0,0,1,20,26.45Z" style="fill: #f1a690"/>
        <path d="M19.76,25.63c-2-.19-7.36-3.56-10.38-5.92C7.22,18,3.86,15.1,6.28,12.13c3.74-4.61,11.12,7,12.82,9.3.43.58,2.39,3.35,1.61,4.07A1.28,1.28,0,0,1,19.76,25.63Z" style="fill: #f7ccc0"/>
        <path d="M19.14,27.36c-2,.37-8-1.41-11.6-2.86C5,23.46,1,21.58,2.48,18.05c2.35-5.45,12.63,3.75,14.88,5.46.57.43,3.21,2.56,2.66,3.46C19.87,27.21,19.53,27.29,19.14,27.36Z" style="fill: #f1a690"/>
        <path d="M23.61,28C25.63,28.24,31,31.6,34,34c2.17,1.7,5.53,4.61,3.11,7.59-3.75,4.6-11.12-7.06-12.82-9.31-.43-.57-2.4-3.35-1.61-4.06C22.87,28,23.22,28,23.61,28Z" style="fill: #f9d9d1"/>
        <path d="M24.23,26.31c2-.37,8.05,1.41,11.6,2.86,2.55,1,6.58,2.93,5.06,6.45C38.55,41.07,28.27,31.87,26,30.16c-.57-.43-3.22-2.56-2.66-3.46A1.25,1.25,0,0,1,24.23,26.31Z" style="fill: #f1a690"/>
        <path d="M23.19,25.46c.13-2,3.32-7.47,5.58-10.57,1.62-2.22,4.43-5.67,7.48-3.35,4.72,3.59-6.69,11.35-8.89,13.11-.55.45-3.26,2.51-4,1.75A1.28,1.28,0,0,1,23.19,25.46Z" style="fill: #f7ccc0"/>
        <path d="M21.44,24.9c-.43-2,1.15-8.1,2.48-11.69.95-2.58,2.71-6.67,6.28-5.27,5.52,2.16-3.33,12.74-5,15-.41.59-2.45,3.3-3.37,2.77C21.62,25.62,21.53,25.28,21.44,24.9Z" style="fill: #f1a690"/>
        <path d="M20.71,28.73c-.13,2-3.32,7.47-5.58,10.57C13.51,41.52,10.7,45,7.65,42.65c-4.72-3.59,6.69-11.35,8.88-13.12.56-.45,3.27-2.5,4-1.74A1.27,1.27,0,0,1,20.71,28.73Z" style="fill: #f1a690"/>
        <path d="M22.46,29.29c.43,2-1.15,8.1-2.48,11.69-1,2.58-2.71,6.67-6.28,5.27-5.52-2.17,3.33-12.74,5-15,.42-.58,2.46-3.3,3.38-2.77C22.28,28.57,22.37,28.9,22.46,29.29Z" style="fill: #f9d9d1"/>
        <path d="M20.08,27.54c-1.55,1.31-7.69,2.78-11.49,3.29-2.73.36-7.16.73-7.6-3.08-.67-5.9,12.82-3,15.62-2.66.71.09,4.07.62,4,1.68C20.63,27,20.38,27.29,20.08,27.54Z" style="fill: #f9d9d1"/>
        <path d="M20.88,29.2c-1.13,1.68-6.63,4.77-10.15,6.29-2.52,1.1-6.69,2.66-8.15-.88-2.26-5.49,11.51-6.41,14.3-6.83.71-.1,4.08-.51,4.33.52C21.28,28.57,21.1,28.87,20.88,29.2Z" style="fill: #f7ccc0"/>
        <path d="M23.83,27c1.55-1.31,7.69-2.78,11.49-3.29,2.73-.36,7.16-.73,7.6,3.08.67,5.9-12.82,3-15.62,2.66-.71-.09-4.07-.62-4-1.68C23.28,27.45,23.53,27.2,23.83,27Z" style="fill: #f7ccc0"/>
        <path d="M23,25.29c1.13-1.68,6.64-4.77,10.15-6.29,2.53-1.1,6.69-2.66,8.15.88,2.26,5.49-11.51,6.41-14.3,6.83-.71.1-4.08.51-4.33-.52C22.63,25.92,22.81,25.62,23,25.29Z" style="fill: #f9d9d1"/>
        <path d="M17.22,26.83a4.92,4.92,0,1,1,5.09,4.75A4.92,4.92,0,0,1,17.22,26.83Z" style="fill: #c29e95"/>
      </g>
      <g>
        <path d="M175.93,91.26c1,1.17,2.21,5.84,2.64,8.74.31,2.08.65,5.47-2.26,5.84-4.5.59-2.46-9.76-2.22-11.9.06-.54.43-3.11,1.24-3.1C175.54,90.84,175.73,91,175.93,91.26Z" style="fill: #f7ccc0"/>
        <path d="M177.18,90.63c1.3.84,3.73,5,4.93,7.68.87,1.92,2.11,5.08-.58,6.24-4.16,1.79-5-8.72-5.38-10.85-.09-.54-.44-3.11.34-3.32A1,1,0,0,1,177.18,90.63Z" style="fill: #f1a690"/>
        <path d="M175.28,88.93c-1-1.17-2.21-5.84-2.64-8.74-.32-2.08-.65-5.46,2.26-5.84,4.5-.59,2.46,9.76,2.22,11.9-.06.55-.43,3.12-1.24,3.1C175.67,89.35,175.48,89.16,175.28,88.93Z" style="fill: #f9d9d1"/>
        <path d="M174,89.57c-1.3-.85-3.73-5-4.94-7.69-.86-1.91-2.11-5.08.59-6.24,4.16-1.79,5,8.72,5.38,10.85.09.54.44,3.11-.34,3.32A1,1,0,0,1,174,89.57Z" style="fill: #f1a690"/>
        <path d="M173.83,88.94c-1.55-.14-5.63-2.71-7.94-4.52-1.65-1.3-4.22-3.52-2.37-5.8,2.86-3.52,8.5,5.39,9.8,7.12.33.44,1.83,2.55,1.23,3.1A1,1,0,0,1,173.83,88.94Z" style="fill: #f7ccc0"/>
        <path d="M173.35,90.27c-1.52.28-6.15-1.08-8.86-2.19-2-.79-5-2.23-3.87-4.93C162.41,79,170.27,86,172,87.32c.43.33,2.46,2,2,2.65C173.91,90.15,173.65,90.21,173.35,90.27Z" style="fill: #f1a690"/>
        <path d="M176.77,90.79c1.54.14,5.62,2.72,7.93,4.52,1.66,1.3,4.22,3.53,2.37,5.8-2.86,3.52-8.5-5.39-9.79-7.12-.33-.43-1.83-2.55-1.23-3.1A1,1,0,0,1,176.77,90.79Z" style="fill: #f9d9d1"/>
        <path d="M177.24,89.46c1.53-.28,6.15,1.08,8.87,2.19,1.94.79,5,2.24,3.87,4.93-1.8,4.16-9.65-2.87-11.37-4.17-.44-.33-2.46-2-2-2.65C176.68,89.58,176.94,89.52,177.24,89.46Z" style="fill: #f1a690"/>
        <path d="M176.45,88.81c.09-1.54,2.53-5.71,4.26-8.08,1.24-1.69,3.38-4.33,5.72-2.56,3.61,2.75-5.12,8.68-6.79,10-.43.34-2.5,1.91-3.07,1.33A1,1,0,0,1,176.45,88.81Z" style="fill: #f7ccc0"/>
        <path d="M175.11,88.38c-.33-1.51.88-6.18,1.89-8.93.73-2,2.07-5.1,4.8-4,4.22,1.66-2.55,9.74-3.79,11.5-.32.45-1.88,2.52-2.58,2.12A1,1,0,0,1,175.11,88.38Z" style="fill: #f1a690"/>
        <path d="M174.55,91.31c-.1,1.55-2.54,5.71-4.27,8.08-1.24,1.7-3.38,4.34-5.71,2.56-3.61-2.74,5.11-8.67,6.79-10,.43-.35,2.49-1.92,3.06-1.34A1,1,0,0,1,174.55,91.31Z" style="fill: #f1a690"/>
        <path d="M175.88,91.74c.33,1.52-.87,6.19-1.89,8.94-.73,2-2.07,5.09-4.8,4C165,103.05,171.74,95,173,93.2c.31-.44,1.87-2.52,2.58-2.11C175.75,91.19,175.82,91.45,175.88,91.74Z" style="fill: #f9d9d1"/>
        <path d="M174.07,90.4c-1.19,1-5.88,2.13-8.79,2.52-2.08.27-5.47.55-5.8-2.36-.51-4.5,9.8-2.31,11.94-2,.54.07,3.1.48,3.08,1.29C174.49,90,174.3,90.21,174.07,90.4Z" style="fill: #f9d9d1"/>
        <path d="M174.68,91.67c-.86,1.28-5.07,3.65-7.76,4.81-1.93.84-5.11,2-6.23-.68-1.72-4.19,8.8-4.9,10.93-5.21.54-.08,3.12-.39,3.32.4C175,91.19,174.85,91.42,174.68,91.67Z" style="fill: #f7ccc0"/>
        <path d="M176.94,90c1.18-1,5.87-2.12,8.78-2.51,2.08-.28,5.47-.56,5.8,2.35.52,4.51-9.79,2.31-11.93,2-.55-.07-3.11-.48-3.08-1.29C176.51,90.33,176.71,90.15,176.94,90Z" style="fill: #f7ccc0"/>
        <path d="M176.32,88.69c.87-1.29,5.07-3.65,7.76-4.82,1.93-.83,5.12-2,6.23.68,1.73,4.2-8.79,4.9-10.93,5.22-.54.08-3.12.39-3.31-.4A1,1,0,0,1,176.32,88.69Z" style="fill: #f9d9d1"/>
        <path d="M171.88,89.86a3.76,3.76,0,1,1,3.9,3.63A3.76,3.76,0,0,1,171.88,89.86Z" style="fill: #c29e95"/>
      </g>
      <g>
        <path d="M103.87,73.28c.86,1,1.86,4.9,2.23,7.34.26,1.74.54,4.58-1.9,4.9-3.78.49-2.07-8.19-1.87-10,.06-.46.36-2.62,1-2.6C103.55,72.93,103.71,73.09,103.87,73.28Z" style="fill: #f7ccc0"/>
        <path d="M104.93,72.75c1.09.71,3.12,4.21,4.14,6.45.72,1.6,1.77,4.26-.49,5.23-3.5,1.51-4.23-7.31-4.52-9.1-.08-.45-.37-2.61.29-2.79A.85.85,0,0,1,104.93,72.75Z" style="fill: #f1a690"/>
        <path d="M103.33,71.32c-.85-1-1.85-4.9-2.22-7.33-.26-1.75-.54-4.59,1.9-4.9,3.78-.5,2.07,8.19,1.86,10-.05.45-.36,2.61-1,2.6C103.66,71.67,103.5,71.52,103.33,71.32Z" style="fill: #f9d9d1"/>
        <path d="M102.28,71.86c-1.09-.71-3.13-4.21-4.14-6.45-.73-1.61-1.77-4.27.49-5.24,3.5-1.5,4.22,7.32,4.52,9.1.07.46.37,2.62-.29,2.79A.77.77,0,0,1,102.28,71.86Z" style="fill: #f1a690"/>
        <path d="M102.11,71.33c-1.29-.12-4.72-2.28-6.66-3.79-1.39-1.09-3.54-3-2-4.87,2.4-3,7.14,4.53,8.22,6,.28.37,1.54,2.15,1,2.61A.78.78,0,0,1,102.11,71.33Z" style="fill: #f7ccc0"/>
        <path d="M101.71,72.45c-1.27.23-5.16-.91-7.44-1.84-1.63-.67-4.22-1.88-3.24-4.13,1.5-3.5,8.1,2.4,9.54,3.49.36.28,2.06,1.65,1.7,2.23C102.18,72.35,102,72.4,101.71,72.45Z" style="fill: #f1a690"/>
        <path d="M104.58,72.88c1.3.13,4.72,2.28,6.66,3.8,1.39,1.09,3.54,3,2,4.86-2.4,3-7.13-4.52-8.22-6-.28-.36-1.54-2.14-1-2.6A.83.83,0,0,1,104.58,72.88Z" style="fill: #f9d9d1"/>
        <path d="M105,71.77c1.28-.23,5.16.91,7.44,1.84,1.63.66,4.22,1.87,3.25,4.13-1.51,3.5-8.1-2.4-9.55-3.5-.36-.28-2.06-1.64-1.7-2.22C104.51,71.87,104.73,71.82,105,71.77Z" style="fill: #f1a690"/>
        <path d="M104.31,71.23c.08-1.3,2.13-4.8,3.58-6.78,1-1.43,2.84-3.64,4.8-2.16,3,2.31-4.29,7.28-5.7,8.42-.36.29-2.1,1.6-2.57,1.12A.85.85,0,0,1,104.31,71.23Z" style="fill: #f7ccc0"/>
        <path d="M103.19,70.86c-.28-1.27.73-5.19,1.59-7.49.61-1.66,1.74-4.28,4-3.38,3.54,1.39-2.14,8.17-3.19,9.65-.26.37-1.58,2.11-2.17,1.77C103.3,71.33,103.24,71.11,103.19,70.86Z" style="fill: #f1a690"/>
        <path d="M102.72,73.32c-.09,1.3-2.13,4.8-3.58,6.78-1,1.43-2.84,3.64-4.8,2.15-3-2.3,4.29-7.28,5.7-8.41.36-.29,2.09-1.61,2.57-1.12A.84.84,0,0,1,102.72,73.32Z" style="fill: #f1a690"/>
        <path d="M103.84,73.68c.28,1.27-.74,5.19-1.59,7.5-.61,1.66-1.74,4.28-4,3.38-3.54-1.39,2.14-8.17,3.19-9.65.26-.38,1.57-2.12,2.16-1.78C103.72,73.22,103.78,73.43,103.84,73.68Z" style="fill: #f9d9d1"/>
        <path d="M102.31,72.56c-1,.84-4.93,1.78-7.37,2.11-1.74.23-4.59.47-4.87-2-.43-3.78,8.22-1.94,10-1.7.46.06,2.61.4,2.58,1.08C102.67,72.24,102.51,72.4,102.31,72.56Z" style="fill: #f9d9d1"/>
        <path d="M102.83,73.62c-.73,1.08-4.26,3.06-6.51,4-1.62.7-4.29,1.71-5.23-.57-1.45-3.52,7.38-4.11,9.17-4.38.46-.06,2.62-.32,2.78.34A.81.81,0,0,1,102.83,73.62Z" style="fill: #f7ccc0"/>
        <path d="M104.72,72.18c1-.84,4.93-1.78,7.37-2.11,1.75-.23,4.6-.47,4.87,2,.44,3.78-8.22,1.94-10,1.7-.46,0-2.61-.4-2.59-1.08C104.37,72.5,104.53,72.34,104.72,72.18Z" style="fill: #f7ccc0"/>
        <path d="M104.21,71.12c.72-1.08,4.25-3.06,6.51-4,1.62-.7,4.29-1.71,5.23.57,1.44,3.52-7.38,4.11-9.17,4.38-.46.06-2.62.32-2.79-.34A.78.78,0,0,1,104.21,71.12Z" style="fill: #f9d9d1"/>
        <path d="M100.48,72.11a3.16,3.16,0,1,1,3.27,3A3.15,3.15,0,0,1,100.48,72.11Z" style="fill: #c29e95"/>
      </g>
      <g>
        <path d="M209.1,171.74c1.4,1.6,3,8,3.63,12,.43,2.85.88,7.49-3.1,8-6.17.8-3.38-13.39-3-16.33.08-.74.58-4.27,1.7-4.25C208.57,171.17,208.83,171.43,209.1,171.74Z" style="fill: #f7ccc0"/>
        <path d="M210.82,170.87c1.78,1.16,5.11,6.88,6.77,10.54,1.19,2.63,2.9,7-.8,8.56-5.71,2.45-6.9-12-7.39-14.88-.12-.74-.6-4.27.48-4.55C210.16,170.46,210.47,170.64,210.82,170.87Z" style="fill: #f1a690"/>
        <path d="M208.22,168.54c-1.4-1.6-3-8-3.63-12-.43-2.85-.88-7.49,3.1-8,6.17-.8,3.38,13.39,3.05,16.33-.09.75-.59,4.27-1.71,4.25C208.75,169.12,208.49,168.86,208.22,168.54Z" style="fill: #f9d9d1"/>
        <path d="M206.5,169.41c-1.78-1.16-5.11-6.88-6.77-10.54-1.19-2.62-2.89-7,.8-8.55,5.71-2.46,6.91,12,7.39,14.87.12.74.6,4.27-.48,4.56C207.16,169.82,206.85,169.64,206.5,169.41Z" style="fill: #f1a690"/>
        <path d="M206.22,168.56c-2.11-.2-7.71-3.73-10.88-6.21-2.27-1.77-5.79-4.83-3.26-7.95,3.93-4.82,11.66,7.4,13.44,9.76.45.6,2.51,3.51,1.69,4.26A1.32,1.32,0,0,1,206.22,168.56Z" style="fill: #f7ccc0"/>
        <path d="M205.57,170.38c-2.09.38-8.44-1.48-12.16-3-2.67-1.09-6.89-3.07-5.31-6.76,2.46-5.72,13.24,3.93,15.6,5.72.6.45,3.37,2.68,2.79,3.63C206.34,170.21,206,170.3,205.57,170.38Z" style="fill: #f1a690"/>
        <path d="M210.26,171.09c2.11.2,7.71,3.73,10.88,6.21,2.27,1.77,5.79,4.83,3.26,7.95-3.93,4.82-11.67-7.4-13.44-9.76-.46-.6-2.52-3.51-1.69-4.26A1.32,1.32,0,0,1,210.26,171.09Z" style="fill: #f9d9d1"/>
        <path d="M210.91,169.27c2.09-.38,8.44,1.48,12.16,3,2.67,1.09,6.89,3.07,5.3,6.76-2.46,5.72-13.23-3.93-15.59-5.72-.6-.45-3.37-2.68-2.79-3.63C210.14,169.44,210.5,169.35,210.91,169.27Z" style="fill: #f1a690"/>
        <path d="M209.82,168.38c.13-2.12,3.47-7.83,5.84-11.08,1.71-2.33,4.64-6,7.84-3.51,5,3.76-7,11.89-9.31,13.75-.59.47-3.42,2.62-4.2,1.83A1.31,1.31,0,0,1,209.82,168.38Z" style="fill: #f7ccc0"/>
        <path d="M208,167.79c-.45-2.08,1.2-8.48,2.6-12.26,1-2.7,2.84-7,6.58-5.52,5.79,2.27-3.49,13.36-5.2,15.78-.44.61-2.58,3.45-3.54,2.9C208.17,168.55,208.07,168.2,208,167.79Z" style="fill: #f1a690"/>
        <path d="M207.21,171.81c-.13,2.12-3.47,7.83-5.85,11.08-1.7,2.33-4.64,6-7.84,3.51-5-3.76,7-11.89,9.32-13.75.58-.47,3.42-2.62,4.2-1.83A1.41,1.41,0,0,1,207.21,171.81Z" style="fill: #f1a690"/>
        <path d="M209.05,172.4c.45,2.08-1.21,8.48-2.6,12.25-1,2.71-2.84,7-6.59,5.53-5.79-2.27,3.5-13.36,5.21-15.78.43-.61,2.58-3.46,3.54-2.9C208.86,171.64,209,172,209.05,172.4Z" style="fill: #f9d9d1"/>
        <path d="M206.55,170.56c-1.62,1.38-8.06,2.92-12.05,3.45-2.85.38-7.5.76-8-3.23-.7-6.18,13.44-3.17,16.38-2.79.74.1,4.26.66,4.22,1.77C207.13,170,206.87,170.3,206.55,170.56Z" style="fill: #f9d9d1"/>
        <path d="M207.4,172.3c-1.19,1.76-7,5-10.65,6.6-2.65,1.15-7,2.79-8.54-.93-2.37-5.75,12.06-6.72,15-7.16.74-.11,4.28-.53,4.54.55C207.81,171.64,207.63,172,207.4,172.3Z" style="fill: #f7ccc0"/>
        <path d="M210.49,169.94c1.62-1.37,8.06-2.91,12-3.44,2.85-.38,7.5-.77,8,3.23.7,6.18-13.44,3.17-16.38,2.79-.74-.1-4.26-.66-4.22-1.77C209.91,170.46,210.17,170.21,210.49,169.94Z" style="fill: #f7ccc0"/>
        <path d="M209.64,168.21c1.19-1.77,7-5,10.65-6.61,2.65-1.14,7-2.78,8.54.94,2.37,5.75-12.06,6.72-15,7.15-.74.11-4.28.53-4.54-.55A1.3,1.3,0,0,1,209.64,168.21Z" style="fill: #f9d9d1"/>
        <path d="M203.55,169.82a5.16,5.16,0,1,1,5.35,5A5.16,5.16,0,0,1,203.55,169.82Z" style="fill: #c29e95"/>
      </g>
      <path d="M92.06,153.46s17,6.27,25.61-10.09C117.67,143.37,97,141.06,92.06,153.46Z" style="fill: #a37162"/>
      <path d="M179.78,124.63s7.67,6,22.77-4.26C202.55,120.37,178.23,113.22,179.78,124.63Z" style="fill: #a37162"/>
      <path d="M156.46,113.43s11,2.47,6.4,18.68C162.86,132.11,145.71,117.26,156.46,113.43Z" style="fill: #a37162"/>
      <path d="M191.09,136.25s2.82,14.8-7.23,22C183.86,158.29,179.46,131.51,191.09,136.25Z" style="fill: #a37162"/>
      <path d="M135.57,114.18s8.28-.87,13.56-13.38C149.13,100.8,127,107,135.57,114.18Z" style="fill: #a37162"/>
      <path d="M110.09,130.57s1.44,8.35,20.44,5.38C130.53,136,118.75,116.51,110.09,130.57Z" style="fill: #a37162"/>
      <path d="M177.29,193.48s-8.35,1.45-11.63-4.93C165.66,188.55,183.87,185.22,177.29,193.48Z" style="fill: #a37162"/>
      <path d="M144.48,194.66s5.52-5.93-3.92-13.61C140.56,181.05,135.15,190,144.48,194.66Z" style="fill: #a37162"/>
      <path d="M130.62,181s-5.22,3.63-11.34-7.23C119.28,173.79,128.36,171.17,130.62,181Z" style="fill: #a37162"/>
      <path d="M129.1,160.07s7.39,3.55,12.43-5C141.53,155,131.91,153.09,129.1,160.07Z" style="fill: #a37162"/>
      <path d="M141.6,146.25A11.93,11.93,0,0,0,147,138S136.85,141.83,141.6,146.25Z" style="fill: #a37162"/>
      <path d="M161.82,198.62s-2.39,8.11-11.28,5C150.54,203.61,152.65,198.57,161.82,198.62Z" style="fill: #a37162"/>
      <path d="M185.84,186.68s6.28,4.74.14,14.51C186,201.19,181.85,192.55,185.84,186.68Z" style="fill: #a37162"/>
      <path d="M153.78,142.47s4.92,1.25,4,7C157.76,149.49,149.6,145.77,153.78,142.47Z" style="fill: #a37162"/>
      <path d="M56.54,150.07s8.89-5.09,4.72-14.88C61.26,135.19,50.93,142.63,56.54,150.07Z" style="fill: #a37162"/>
      <path d="M52,116.62s6.06,1.21,10.53-9.84C62.53,106.78,52,109.45,52,116.62Z" style="fill: #a37162"/>
      <path d="M52.39,135.51s-6.58.24-9.49-8.83C42.9,126.68,52.29,124.91,52.39,135.51Z" style="fill: #a37162"/>
      <path d="M60.6,91s-6-6.52,2.89-13.14A15.15,15.15,0,0,1,60.6,91Z" style="fill: #a37162"/>
      <path d="M68.51,81.93s4.3,7.86,13.07,5C81.58,86.9,74.09,77.71,68.51,81.93Z" style="fill: #a37162"/>
      <path d="M117,92.79s2.82,6.77-4.16,11.89C112.88,104.68,109.5,90.48,117,92.79Z" style="fill: #a37162"/>
      <path d="M79.2,76.38s.08-5.73,9.06-10.92C88.26,65.46,87,78.68,79.2,76.38Z" style="fill: #a37162"/>
      <path d="M52,101.72s-9.9-4.52-8.78-13.16C43.25,88.56,54.6,93.31,52,101.72Z" style="fill: #a37162"/>
      <path d="M55.43,76.67s7.44-.27,8.09-14.05C63.52,62.62,52.82,67.88,55.43,76.67Z" style="fill: #a37162"/>
      <path d="M53.78,62.69s-6.5,2.52-12-5.88C41.82,56.81,51.41,52.46,53.78,62.69Z" style="fill: #a37162"/>
      <path d="M49.17,46s6.38-5.68,0-16.33C49.15,29.62,42.65,40.16,49.17,46Z" style="fill: #a37162"/>
      <path d="M.54,207.48s-6.42-8.56,4.71-17.74C5.25,189.74,9.48,201,.54,207.48Z" style="fill: #a37162"/>
      <path d="M14,198.21s7.2,8.91,16.84.92C30.8,199.13,19.88,193,14,198.21Z" style="fill: #a37162"/>
      <path d="M23.21,189.85s-5.28-8.59,4.74-17C28,172.87,31.42,184.59,23.21,189.85Z" style="fill: #a37162"/>
      <path d="M41.51,104a15.38,15.38,0,0,1-15.42-4S35,93.16,41.51,104Z" style="fill: #a37162"/>
      <path d="M29.15,89.55S33,78.72,22.48,74.13C22.48,74.13,18.68,85.34,29.15,89.55Z" style="fill: #a37162"/>
      <path d="M11.28,81.41S4.8,92.34-5.35,86.21C-5.35,86.21,1.24,78.33,11.28,81.41Z" style="fill: #a37162"/>
      <path d="M-5,158.78s6.44,9.32,17,4.36C11.93,163.14,4.67,152.32-5,158.78Z" style="fill: #a37162"/>
      <path d="M10.25,148.3s-9-6.17-3.91-13.23C6.34,135.07,15.26,139,10.25,148.3Z" style="fill: #a37162"/>
      <path d="M17.05,135.45s8-1.44,7.48-15.17C24.53,120.28,14,124.86,17.05,135.45Z" style="fill: #a37162"/>
      <path d="M11.39,116.17s-5.15,5.53-9.89,1.12C1.5,117.29,7.78,111.33,11.39,116.17Z" style="fill: #a37162"/>
      <path d="M1.56,108.5s1.32-5.78-7.24-10.06C-5.68,98.44-6.5,107.26,1.56,108.5Z" style="fill: #a37162"/>
      <path d="M137.11,96s-5.79-12.4,2.36-19.57C139.47,76.41,144.13,89.23,137.11,96Z" style="fill: #a37162"/>
      <path d="M146.57,61.64s-8.32,2.21-12.42-5.67C134.15,56,144.35,52.93,146.57,61.64Z" style="fill: #a37162"/>
      <path d="M145.72,80.39S153,81.65,155.24,69C155.24,69,146.14,70.82,145.72,80.39Z" style="fill: #a37162"/>
      <path d="M139.28,39.36s-5.19,4.39-12.67-1.83C126.61,37.53,134.44,32.28,139.28,39.36Z" style="fill: #a37162"/>
      <path d="M145.07,51.76s7.17-2.55,4.07-14.28C149.14,37.48,141,45,145.07,51.76Z" style="fill: #a37162"/>
      <path d="M125.5,28s-.66-7.62-10.6-8C114.9,20,118.62,27.88,125.5,28Z" style="fill: #a37162"/>
      <path d="M109.05,27.46s2.58,7.93-3.06,10.43C106,37.89,103.82,30.71,109.05,27.46Z" style="fill: #a37162"/>
      <path d="M96.61,37s-3.94,3.92-10.46.73C86.15,37.75,95.31,31.49,96.61,37Z" style="fill: #a37162"/>
      <path d="M80.12,208.82s7.44-16.6,17.75-9.73C97.87,199.09,88.71,210.54,80.12,208.82Z" style="fill: #a37162"/>
      <path d="M87,167.59s-15.46-11.45-5.15-28.06C81.84,139.53,94.44,155,87,167.59Z" style="fill: #a37162"/>
      <g>
        <path d="M62.54,181.56c1.72,2,3.74,9.86,4.47,14.76.52,3.5,1.08,9.22-3.82,9.86-7.59,1-4.16-16.48-3.75-20.09.11-.92.73-5.26,2.1-5.24C61.89,180.86,62.2,181.18,62.54,181.56Z" style="fill: #f7ccc0"/>
        <path d="M64.66,180.49c2.19,1.43,6.28,8.47,8.32,13,1.47,3.24,3.57,8.58-1,10.53-7,3-8.5-14.71-9.09-18.3-.15-.92-.74-5.26.59-5.61A1.62,1.62,0,0,1,64.66,180.49Z" style="fill: #f1a690"/>
        <path d="M61.45,177.63c-1.72-2-3.73-9.86-4.46-14.75-.53-3.51-1.09-9.22,3.82-9.86,7.59-1,4.15,16.48,3.74,20.09-.1.92-.72,5.26-2.09,5.23C62.11,178.34,61.79,178,61.45,177.63Z" style="fill: #f9d9d1"/>
        <path d="M59.34,178.7c-2.2-1.42-6.29-8.46-8.33-13-1.46-3.23-3.56-8.57,1-10.52,7-3,8.5,14.71,9.09,18.3.15.91.74,5.25-.58,5.6A1.62,1.62,0,0,1,59.34,178.7Z" style="fill: #f1a690"/>
        <path d="M59,177.65c-2.61-.25-9.5-4.59-13.39-7.63-2.8-2.19-7.13-6-4-9.79,4.83-5.93,14.35,9.1,16.54,12,.55.74,3.08,4.32,2.07,5.24A1.58,1.58,0,0,1,59,177.65Z" style="fill: #f7ccc0"/>
        <path d="M58.2,179.89c-2.58.47-10.39-1.82-15-3.69-3.28-1.34-8.48-3.78-6.53-8.32,3-7,16.29,4.84,19.19,7,.74.56,4.15,3.3,3.43,4.47C59.14,179.69,58.7,179.79,58.2,179.89Z" style="fill: #f1a690"/>
        <path d="M64,180.76c2.6.25,9.49,4.59,13.39,7.64,2.79,2.19,7.13,5.95,4,9.78-4.83,5.94-14.35-9.1-16.54-12-.56-.74-3.09-4.32-2.08-5.24A1.65,1.65,0,0,1,64,180.76Z" style="fill: #f9d9d1"/>
        <path d="M64.76,178.53c2.57-.47,10.38,1.82,15,3.69,3.28,1.34,8.48,3.77,6.52,8.32-3,7-16.29-4.84-19.18-7-.74-.56-4.16-3.31-3.43-4.47C63.82,178.73,64.26,178.62,64.76,178.53Z" style="fill: #f1a690"/>
        <path d="M63.42,177.43c.16-2.61,4.27-9.64,7.19-13.63,2.1-2.86,5.71-7.32,9.65-4.33,6.09,4.64-8.63,14.64-11.46,16.92-.72.58-4.21,3.23-5.17,2.25A1.65,1.65,0,0,1,63.42,177.43Z" style="fill: #f7ccc0"/>
        <path d="M61.16,176.71c-.56-2.56,1.48-10.44,3.2-15.08,1.23-3.33,3.49-8.6,8.1-6.8,7.12,2.8-4.3,16.44-6.41,19.41-.53.75-3.17,4.25-4.35,3.57C61.39,177.64,61.27,177.21,61.16,176.71Z" style="fill: #f1a690"/>
        <path d="M60.21,181.65c-.16,2.61-4.27,9.64-7.19,13.63-2.1,2.86-5.71,7.32-9.65,4.33C37.28,195,52,185,54.83,182.69c.72-.58,4.21-3.23,5.17-2.25A1.65,1.65,0,0,1,60.21,181.65Z" style="fill: #f1a690"/>
        <path d="M62.47,182.37c.56,2.56-1.48,10.44-3.2,15.08-1.23,3.33-3.49,8.6-8.1,6.8-7.12-2.79,4.3-16.44,6.41-19.41.53-.75,3.17-4.25,4.35-3.57C62.24,181.44,62.36,181.87,62.47,182.37Z" style="fill: #f9d9d1"/>
        <path d="M59.4,180.12c-2,1.69-9.92,3.58-14.82,4.24-3.51.47-9.23.94-9.8-4-.87-7.6,16.54-3.9,20.15-3.43.92.12,5.24.81,5.2,2.18C60.12,179.48,59.79,179.79,59.4,180.12Z" style="fill: #f9d9d1"/>
        <path d="M60.44,182.25c-1.46,2.17-8.56,6.16-13.1,8.13-3.25,1.41-8.63,3.42-10.51-1.15-2.91-7.08,14.84-8.27,18.44-8.8.92-.14,5.27-.66,5.6.67A1.61,1.61,0,0,1,60.44,182.25Z" style="fill: #f7ccc0"/>
        <path d="M64.25,179.35c2-1.69,9.91-3.58,14.82-4.24,3.51-.46,9.23-.94,9.79,4,.87,7.6-16.53,3.9-20.14,3.43-.92-.12-5.25-.81-5.2-2.18C63.53,180,63.86,179.68,64.25,179.35Z" style="fill: #f7ccc0"/>
        <path d="M63.21,177.22c1.46-2.17,8.56-6.16,13.1-8.13,3.25-1.41,8.62-3.42,10.51,1.15,2.91,7.08-14.85,8.27-18.45,8.8-.91.14-5.26.66-5.59-.67A1.61,1.61,0,0,1,63.21,177.22Z" style="fill: #f9d9d1"/>
        <path d="M55.71,179.21a6.35,6.35,0,1,1,6.58,6.11A6.36,6.36,0,0,1,55.71,179.21Z" style="fill: #c29e95"/>
      </g>
    </g>
  </g>
</svg>
