<svg id="PRINT" xmlns="http://www.w3.org/2000/svg" xmlns:xlink="http://www.w3.org/1999/xlink" viewBox="0 0 303.53 269.65">
  <defs>
    <clipPath id="clip-path">
      <rect x="-19.91" y="-8.95" width="326.12" height="304.01" transform="translate(286.29 286.11) rotate(180)" style="fill: none"/>
    </clipPath>
  </defs>
  <title>sup-der-1</title>
  <g style="clip-path: url(#clip-path)">
    <g style="opacity: 0.8">
      <path d="M122.44,155.75c-12.3,13.79-14,51.18,3.12,72.67,11.58,14.54,32.28,17.83,47.13,6.65a26.92,26.92,0,0,0,5.33-37.7,21.54,21.54,0,0,0-30.17-4.26,17.24,17.24,0,0,0-3.41,24.13A13.8,13.8,0,0,0,163.75,220" style="fill: none;stroke: #a37162;stroke-linecap: round;stroke-linejoin: round;stroke-width: 2.1775700000000002px"/>
      <path d="M193.23-35.8C218.34,37,175.84,112.34,133.28,126.69A65.05,65.05,0,0,1,50.86,85.83,52,52,0,0,1,83.55,19.89,41.64,41.64,0,0,1,136.3,46a33.31,33.31,0,0,1-20.92,42.2A26.64,26.64,0,0,1,81.62,71.51,21.31,21.31,0,0,1,95,44.5a17,17,0,0,1,21.6,10.71A13.63,13.63,0,0,1,108,72.49a10.9,10.9,0,0,1-13.82-6.85" style="fill: none;stroke: #a37162;stroke-linecap: round;stroke-linejoin: round;stroke-width: 2.1775700000000002px"/>
      <path d="M389.6-15.65c-84.5-3.49-150.39,65-152.08,114.26a71.44,71.44,0,0,0,69,73.85,57.15,57.15,0,0,0,59.08-55.16A45.71,45.71,0,0,0,321.42,70a36.57,36.57,0,0,0-37.81,35.3,29.27,29.27,0,0,0,28.25,30.25A23.4,23.4,0,0,0,336.05,113,18.73,18.73,0,0,0,318,93.63a15,15,0,0,0-15.49,14.47,12,12,0,0,0,11.57,12.39" style="fill: none;stroke: #a37162;stroke-linecap: round;stroke-linejoin: round;stroke-width: 2.1775700000000002px"/>
      <path d="M218.81,54.47c22.36,29.87,25.2,78.06,7.43,103.46a44.65,44.65,0,0,1-62.41,10.88,36.14,36.14,0,0,1-8.74-50.17,28.57,28.57,0,0,1,39.94-7,23.13,23.13,0,0,1,5.6,32.11,18.3,18.3,0,0,1-25.57,4.45" style="fill: none;stroke: #a37162;stroke-linecap: round;stroke-linejoin: round;stroke-width: 2.1775700000000002px"/>
      <path d="M242.92,130.91c-16.78,33.33-11.11,81.27,10.84,103.16a44.62,44.62,0,0,0,20.8,11.75" style="fill: none;stroke: #a37162;stroke-linecap: round;stroke-linejoin: round;stroke-width: 2.1775700000000002px"/>
      <path d="M154.45,114c-8.2,25-39.07,51.72-60.9,51.73a31.41,31.41,0,0,1-16.22-4.48" style="fill: none;stroke: #a37162;stroke-linecap: round;stroke-linejoin: round;stroke-width: 2.1775700000000002px"/>
      <g>
        <path d="M276,239.23c-1.74-2-3.78-10-4.52-14.93-.53-3.55-1.1-9.33,3.86-10,7.68-1,4.21,16.66,3.79,20.32-.1.93-.73,5.32-2.12,5.29C276.61,239.94,276.29,239.62,276,239.23Z" style="fill: #f7ccc0"/>
        <path d="M273.81,240.31c-2.22-1.44-6.36-8.56-8.43-13.12-1.48-3.27-3.6-8.68,1-10.65,7.11-3.06,8.59,14.88,9.19,18.51.15.93.75,5.32-.59,5.68A1.66,1.66,0,0,1,273.81,240.31Z" style="fill: #f1a690"/>
        <path d="M277.05,243.21c1.74,2,3.78,10,4.52,14.92.53,3.55,1.1,9.33-3.87,10-7.68,1-4.2-16.67-3.78-20.33.1-.93.73-5.32,2.11-5.29C276.39,242.49,276.71,242.82,277.05,243.21Z" style="fill: #f9d9d1"/>
        <path d="M279.19,242.12c2.22,1.44,6.36,8.57,8.43,13.13,1.47,3.26,3.6,8.67-1,10.65-7.11,3.05-8.6-14.89-9.19-18.52-.16-.93-.75-5.32.59-5.67A1.64,1.64,0,0,1,279.19,242.12Z" style="fill: #f1a690"/>
        <path d="M279.53,243.18c2.64.26,9.61,4.65,13.55,7.73,2.83,2.21,7.21,6,4.06,9.9-4.89,6-14.52-9.21-16.73-12.15-.57-.75-3.13-4.37-2.11-5.3A1.69,1.69,0,0,1,279.53,243.18Z" style="fill: #f7ccc0"/>
        <path d="M280.34,240.92c2.61-.47,10.51,1.85,15.15,3.74,3.32,1.35,8.58,3.81,6.6,8.41-3.06,7.11-16.48-4.89-19.41-7.12-.75-.56-4.2-3.34-3.47-4.52C279.39,241.13,279.83,241,280.34,240.92Z" style="fill: #f1a690"/>
        <path d="M274.51,240c-2.63-.26-9.6-4.65-13.54-7.73-2.83-2.21-7.22-6-4.06-9.9,4.89-6,14.52,9.21,16.73,12.15.56.75,3.13,4.37,2.11,5.3A1.71,1.71,0,0,1,274.51,240Z" style="fill: #f9d9d1"/>
        <path d="M273.7,242.3c-2.6.47-10.5-1.85-15.14-3.74-3.32-1.35-8.58-3.81-6.6-8.41,3.06-7.11,16.48,4.89,19.41,7.12.75.56,4.2,3.34,3.47,4.52C274.65,242.09,274.21,242.2,273.7,242.3Z" style="fill: #f1a690"/>
        <path d="M275.06,243.41c-.17,2.64-4.33,9.75-7.28,13.79-2.12,2.9-5.78,7.41-9.76,4.38-6.16-4.69,8.73-14.81,11.59-17.12.73-.59,4.27-3.27,5.23-2.28A1.66,1.66,0,0,1,275.06,243.41Z" style="fill: #f7ccc0"/>
        <path d="M277.34,244.14c.57,2.59-1.49,10.56-3.23,15.26-1.25,3.36-3.53,8.7-8.19,6.87-7.21-2.82,4.35-16.63,6.47-19.63.55-.77,3.21-4.31,4.41-3.62C277.11,243.2,277.23,243.64,277.34,244.14Z" style="fill: #f1a690"/>
        <path d="M278.31,239.14c.16-2.64,4.32-9.75,7.27-13.79,2.12-2.9,5.78-7.41,9.76-4.38,6.17,4.69-8.72,14.81-11.59,17.12-.73.59-4.26,3.27-5.23,2.28A1.61,1.61,0,0,1,278.31,239.14Z" style="fill: #f1a690"/>
        <path d="M276,238.41c-.56-2.59,1.5-10.57,3.23-15.26,1.25-3.37,3.54-8.7,8.2-6.88,7.21,2.83-4.35,16.63-6.48,19.64-.54.76-3.21,4.31-4.41,3.62C276.25,239.35,276.13,238.91,276,238.41Z" style="fill: #f9d9d1"/>
        <path d="M279.13,240.69c2-1.71,10-3.63,15-4.29,3.56-.47,9.34-1,9.91,4,.88,7.69-16.73,4-20.38,3.47-.93-.12-5.31-.81-5.26-2.2C278.4,241.34,278.73,241,279.13,240.69Z" style="fill: #f9d9d1"/>
        <path d="M278.07,238.53c1.48-2.2,8.67-6.23,13.26-8.22,3.29-1.43,8.73-3.47,10.63,1.16,3,7.16-15,8.37-18.66,8.91-.92.14-5.33.66-5.66-.68A1.7,1.7,0,0,1,278.07,238.53Z" style="fill: #f7ccc0"/>
        <path d="M274.22,241.46c-2,1.71-10,3.63-15,4.29-3.56.48-9.35.95-9.91-4-.88-7.69,16.73-3.94,20.38-3.47.93.12,5.3.82,5.26,2.2C275,240.82,274.62,241.13,274.22,241.46Z" style="fill: #f7ccc0"/>
        <path d="M275.27,243.62c-1.47,2.2-8.66,6.23-13.25,8.22-3.29,1.43-8.73,3.47-10.63-1.16-2.95-7.16,15-8.36,18.66-8.9.92-.14,5.32-.67,5.66.68A1.67,1.67,0,0,1,275.27,243.62Z" style="fill: #f9d9d1"/>
        <path d="M282.86,241.61a6.42,6.42,0,1,1-6.65-6.19A6.42,6.42,0,0,1,282.86,241.61Z" style="fill: #c29e95"/>
      </g>
      <g>
        <path d="M75.73,157.53c-1.33-1.53-2.89-7.63-3.46-11.41-.4-2.71-.83-7.13,3-7.62,5.87-.76,3.21,12.74,2.89,15.53-.08.71-.56,4.07-1.61,4.05C76.23,158.07,76,157.83,75.73,157.53Z" style="fill: #f7ccc0"/>
        <path d="M74.09,158.36c-1.69-1.1-4.86-6.55-6.44-10-1.13-2.5-2.75-6.63.76-8.14,5.44-2.34,6.57,11.38,7,14.15.12.71.57,4.07-.45,4.34A1.34,1.34,0,0,1,74.09,158.36Z" style="fill: #f1a690"/>
        <path d="M76.57,160.57C77.9,162.1,79.46,168.2,80,172c.41,2.71.84,7.13-3,7.62-5.87.77-3.21-12.74-2.9-15.53.09-.71.57-4.07,1.62-4C76.07,160,76.31,160.27,76.57,160.57Z" style="fill: #f9d9d1"/>
        <path d="M78.21,159.74c1.69,1.11,4.86,6.55,6.44,10,1.13,2.5,2.75,6.63-.76,8.14-5.44,2.34-6.57-11.37-7-14.15-.12-.71-.57-4.06.45-4.33C77.57,159.36,77.87,159.53,78.21,159.74Z" style="fill: #f1a690"/>
        <path d="M78.47,160.56c2,.19,7.34,3.54,10.35,5.9,2.16,1.69,5.52,4.6,3.1,7.57-3.73,4.59-11.09-7-12.78-9.29-.43-.57-2.39-3.34-1.61-4.05A1.26,1.26,0,0,1,78.47,160.56Z" style="fill: #f7ccc0"/>
        <path d="M79.09,158.83c2-.37,8,1.4,11.57,2.85,2.54,1,6.56,2.92,5,6.43-2.34,5.44-12.6-3.74-14.84-5.44-.57-.43-3.21-2.56-2.65-3.46C78.36,159,78.7,158.9,79.09,158.83Z" style="fill: #f1a690"/>
        <path d="M74.63,158.15c-2-.19-7.34-3.55-10.35-5.91-2.16-1.69-5.51-4.6-3.1-7.56,3.73-4.59,11.09,7,12.79,9.28.43.58,2.38,3.34,1.6,4A1.2,1.2,0,0,1,74.63,158.15Z" style="fill: #f9d9d1"/>
        <path d="M74,159.88c-2,.36-8-1.41-11.57-2.86-2.54-1-6.56-2.91-5-6.43,2.34-5.43,12.6,3.74,14.84,5.44.57.43,3.21,2.56,2.65,3.46C74.74,159.72,74.4,159.8,74,159.88Z" style="fill: #f1a690"/>
        <path d="M75.05,160.73c-.13,2-3.31,7.45-5.56,10.54-1.62,2.21-4.42,5.66-7.46,3.34-4.71-3.58,6.67-11.32,8.86-13.08.56-.45,3.26-2.5,4-1.74A1.27,1.27,0,0,1,75.05,160.73Z" style="fill: #f7ccc0"/>
        <path d="M76.8,161.29c.43,2-1.15,8.07-2.48,11.66-.95,2.57-2.7,6.65-6.26,5.25-5.51-2.16,3.33-12.71,5-15,.42-.59,2.45-3.3,3.37-2.77C76.62,160.57,76.71,160.9,76.8,161.29Z" style="fill: #f1a690"/>
        <path d="M77.53,157.46c.13-2,3.31-7.45,5.56-10.54,1.62-2.21,4.42-5.66,7.46-3.34,4.71,3.58-6.67,11.32-8.86,13.08-.56.45-3.26,2.5-4,1.74A1.27,1.27,0,0,1,77.53,157.46Z" style="fill: #f1a690"/>
        <path d="M75.78,156.9c-.43-2,1.15-8.07,2.48-11.66.95-2.57,2.7-6.65,6.26-5.25,5.51,2.16-3.33,12.71-5,15-.42.59-2.45,3.3-3.37,2.77C76,157.62,75.87,157.29,75.78,156.9Z" style="fill: #f9d9d1"/>
        <path d="M78.16,158.65c1.54-1.31,7.67-2.77,11.46-3.28,2.72-.36,7.14-.73,7.57,3.07.68,5.88-12.78,3-15.57,2.66-.71-.1-4.06-.63-4-1.68C77.6,159.14,77.85,158.9,78.16,158.65Z" style="fill: #f9d9d1"/>
        <path d="M77.35,157c1.13-1.68,6.62-4.76,10.13-6.28,2.52-1.1,6.67-2.65,8.13.88,2.25,5.48-11.48,6.4-14.26,6.81-.71.11-4.07.51-4.33-.52A1.29,1.29,0,0,1,77.35,157Z" style="fill: #f7ccc0"/>
        <path d="M74.41,159.24c-1.55,1.31-7.67,2.77-11.46,3.28-2.72.36-7.14.73-7.58-3.07-.67-5.88,12.79-3,15.58-2.66.71.09,4.06.63,4,1.68C75,158.74,74.71,159,74.41,159.24Z" style="fill: #f7ccc0"/>
        <path d="M75.21,160.89c-1.13,1.68-6.62,4.76-10.13,6.28-2.51,1.09-6.67,2.65-8.12-.88-2.26-5.48,11.47-6.4,14.26-6.81.71-.11,4.07-.51,4.32.52C75.61,160.26,75.43,160.56,75.21,160.89Z" style="fill: #f9d9d1"/>
        <path d="M81,159.35a4.91,4.91,0,1,1-5.08-4.73A4.92,4.92,0,0,1,81,159.35Z" style="fill: #c29e95"/>
      </g>
      <g>
        <path d="M169.76,181c-1.11-1.28-2.42-6.4-2.9-9.58-.34-2.27-.7-6,2.48-6.4,4.93-.64,2.7,10.7,2.43,13-.06.6-.47,3.41-1.36,3.4C170.19,181.45,170,181.25,169.76,181Z" style="fill: #f7ccc0"/>
        <path d="M168.39,181.69c-1.42-.92-4.08-5.49-5.4-8.42-1-2.09-2.32-5.56.63-6.83,4.57-2,5.52,9.55,5.9,11.88.1.59.48,3.41-.38,3.64C168.92,182,168.67,181.87,168.39,181.69Z" style="fill: #f1a690"/>
        <path d="M170.47,183.55c1.11,1.28,2.42,6.4,2.9,9.57.34,2.28.7,6-2.48,6.4-4.93.64-2.7-10.69-2.43-13,.07-.59.47-3.41,1.36-3.39C170.05,183.09,170.25,183.3,170.47,183.55Z" style="fill: #f9d9d1"/>
        <path d="M171.84,182.85c1.43.93,4.08,5.5,5.41,8.42.95,2.1,2.31,5.57-.64,6.83-4.56,2-5.52-9.54-5.9-11.87-.1-.6-.48-3.42.38-3.64C171.31,182.53,171.56,182.67,171.84,182.85Z" style="fill: #f1a690"/>
        <path d="M172.06,183.54c1.69.16,6.16,3,8.69,5,1.82,1.42,4.63,3.86,2.6,6.35-3.13,3.85-9.31-5.9-10.73-7.79-.36-.48-2-2.8-1.35-3.4A1,1,0,0,1,172.06,183.54Z" style="fill: #f7ccc0"/>
        <path d="M172.58,182.09c1.67-.31,6.74,1.18,9.72,2.39,2.13.87,5.5,2.45,4.23,5.4-2,4.56-10.57-3.14-12.45-4.57-.48-.36-2.69-2.14-2.23-2.9A1.08,1.08,0,0,1,172.58,182.09Z" style="fill: #f1a690"/>
        <path d="M168.84,181.52c-1.69-.16-6.16-3-8.69-5-1.81-1.42-4.62-3.86-2.6-6.35,3.14-3.85,9.31,5.91,10.73,7.79.36.48,2,2.8,1.35,3.4A1,1,0,0,1,168.84,181.52Z" style="fill: #f9d9d1"/>
        <path d="M168.32,183c-1.67.3-6.74-1.18-9.71-2.4-2.13-.87-5.5-2.45-4.24-5.4,2-4.56,10.58,3.14,12.46,4.57.48.36,2.69,2.15,2.22,2.9C168.93,182.84,168.65,182.91,168.32,183Z" style="fill: #f1a690"/>
        <path d="M169.19,183.68c-.1,1.69-2.77,6.26-4.67,8.85-1.35,1.85-3.7,4.75-6.26,2.8-3.95-3,5.6-9.5,7.44-11,.47-.37,2.73-2.09,3.35-1.46A1.07,1.07,0,0,1,169.19,183.68Z" style="fill: #f7ccc0"/>
        <path d="M170.66,184.15c.36,1.66-1,6.78-2.08,9.79-.8,2.15-2.26,5.58-5.25,4.41-4.63-1.82,2.79-10.67,4.15-12.6.35-.49,2.06-2.76,2.83-2.32A1.07,1.07,0,0,1,170.66,184.15Z" style="fill: #f1a690"/>
        <path d="M171.28,180.94c.1-1.69,2.77-6.25,4.66-8.85,1.36-1.85,3.71-4.75,6.26-2.8,4,3-5.59,9.5-7.43,11-.47.38-2.74,2.09-3.36,1.46A1,1,0,0,1,171.28,180.94Z" style="fill: #f1a690"/>
        <path d="M169.81,180.47c-.36-1.66,1-6.77,2.07-9.79.8-2.15,2.27-5.58,5.26-4.41,4.62,1.82-2.79,10.67-4.16,12.6-.34.49-2,2.76-2.82,2.32C170,181.08,169.88,180.8,169.81,180.47Z" style="fill: #f9d9d1"/>
        <path d="M171.8,181.94c1.3-1.1,6.44-2.33,9.62-2.75,2.28-.31,6-.62,6.36,2.57.56,4.94-10.73,2.53-13.08,2.23-.59-.08-3.4-.52-3.37-1.41C171.34,182.35,171.55,182.15,171.8,181.94Z" style="fill: #f9d9d1"/>
        <path d="M171.13,180.55c.94-1.41,5.55-4,8.5-5.27,2.11-.92,5.6-2.23,6.82.74,1.89,4.6-9.63,5.37-12,5.72-.59.08-3.42.42-3.63-.44C170.79,181.08,170.94,180.83,171.13,180.55Z" style="fill: #f7ccc0"/>
        <path d="M168.66,182.43c-1.3,1.1-6.44,2.33-9.62,2.75-2.28.31-6,.61-6.36-2.58-.56-4.93,10.73-2.53,13.07-2.22.6.07,3.41.52,3.38,1.41C169.12,182,168.91,182.22,168.66,182.43Z" style="fill: #f7ccc0"/>
        <path d="M169.33,183.82c-1,1.41-5.56,4-8.5,5.27-2.11.92-5.6,2.23-6.82-.74-1.89-4.6,9.63-5.37,12-5.72.59-.09,3.41-.42,3.63.44A1.07,1.07,0,0,1,169.33,183.82Z" style="fill: #f9d9d1"/>
        <path d="M174.2,182.53a4.12,4.12,0,1,1-4.27-4A4.14,4.14,0,0,1,174.2,182.53Z" style="fill: #c29e95"/>
      </g>
      <g>
        <path d="M32.43,52.5c-1.82-2.09-4-10.46-4.74-15.65-.55-3.72-1.15-9.78,4.06-10.46,8-1,4.4,17.48,4,21.31-.11,1-.77,5.58-2.22,5.55C33.12,53.25,32.79,52.91,32.43,52.5Z" style="fill: #f7ccc0"/>
        <path d="M30.19,53.64c-2.33-1.52-6.67-9-8.84-13.76-1.55-3.43-3.77-9.1,1-11.17,7.45-3.2,9,15.61,9.64,19.42.16,1,.78,5.57-.62,5.94A1.71,1.71,0,0,1,30.19,53.64Z" style="fill: #f1a690"/>
        <path d="M33.58,56.67c1.83,2.09,4,10.46,4.74,15.65.56,3.72,1.15,9.78-4,10.46-8.05,1-4.41-17.48-4-21.31.11-1,.77-5.58,2.22-5.55C32.89,55.92,33.23,56.26,33.58,56.67Z" style="fill: #f9d9d1"/>
        <path d="M35.83,55.53c2.33,1.52,6.67,9,8.83,13.76,1.55,3.43,3.78,9.1-1,11.17-7.46,3.2-9-15.61-9.64-19.42-.16-1-.78-5.57.62-5.94C35,55,35.37,55.24,35.83,55.53Z" style="fill: #f1a690"/>
        <path d="M36.19,56.65c2.76.26,10.07,4.86,14.2,8.1,3,2.32,7.56,6.31,4.25,10.38-5.12,6.29-15.22-9.66-17.54-12.74-.59-.79-3.27-4.58-2.2-5.56A1.73,1.73,0,0,1,36.19,56.65Z" style="fill: #f7ccc0"/>
        <path d="M37,54.28c2.73-.5,11,1.93,15.87,3.91,3.49,1.42,9,4,6.93,8.82-3.21,7.46-17.28-5.13-20.35-7.46C38.7,59,35.08,56,35.85,54.81,36,54.49,36.5,54.38,37,54.28Z" style="fill: #f1a690"/>
        <path d="M30.93,53.35c-2.77-.27-10.07-4.87-14.21-8.1-3-2.32-7.56-6.31-4.25-10.38C17.6,28.57,27.69,44.52,30,47.61c.59.78,3.28,4.57,2.21,5.55A1.73,1.73,0,0,1,30.93,53.35Z" style="fill: #f9d9d1"/>
        <path d="M30.08,55.72c-2.73.5-11-1.93-15.88-3.92-3.48-1.42-9-4-6.92-8.82,3.21-7.45,17.28,5.13,20.35,7.46.78.6,4.4,3.51,3.64,4.75A1.77,1.77,0,0,1,30.08,55.72Z" style="fill: #f1a690"/>
        <path d="M31.5,56.88c-.17,2.77-4.54,10.23-7.63,14.46-2.22,3-6.06,7.77-10.23,4.59C7.17,71,22.79,60.4,25.79,58c.77-.61,4.47-3.42,5.48-2.38A1.72,1.72,0,0,1,31.5,56.88Z" style="fill: #f7ccc0"/>
        <path d="M33.89,57.65c.6,2.71-1.56,11.08-3.39,16-1.3,3.52-3.7,9.12-8.59,7.2-7.55-3,4.57-17.43,6.8-20.58.56-.8,3.36-4.52,4.62-3.79C33.65,56.66,33.78,57.12,33.89,57.65Z" style="fill: #f1a690"/>
        <path d="M34.9,52.41c.18-2.77,4.54-10.23,7.63-14.46,2.22-3,6.06-7.77,10.24-4.59,6.46,4.92-9.15,15.53-12.16,18-.77.61-4.47,3.42-5.48,2.38A1.72,1.72,0,0,1,34.9,52.41Z" style="fill: #f1a690"/>
        <path d="M32.51,51.64c-.59-2.71,1.56-11.07,3.39-16,1.3-3.52,3.7-9.12,8.59-7.2,7.56,3-4.56,17.43-6.79,20.58-.57.8-3.37,4.52-4.63,3.79C32.75,52.63,32.62,52.17,32.51,51.64Z" style="fill: #f9d9d1"/>
        <path d="M35.76,54c2.12-1.79,10.52-3.8,15.72-4.49,3.73-.5,9.8-1,10.39,4.21.93,8.07-17.54,4.14-21.36,3.64-1-.12-5.57-.85-5.52-2.3C35,54.71,35.35,54.38,35.76,54Z" style="fill: #f9d9d1"/>
        <path d="M34.66,51.77c1.55-2.3,9.08-6.53,13.89-8.62,3.45-1.49,9.16-3.63,11.15,1.22,3.09,7.51-15.74,8.77-19.56,9.34-1,.14-5.59.69-5.93-.72A1.72,1.72,0,0,1,34.66,51.77Z" style="fill: #f7ccc0"/>
        <path d="M30.62,54.84c-2.12,1.8-10.52,3.81-15.72,4.5-3.73.5-9.79,1-10.39-4.21C3.59,47.06,22.05,51,25.88,51.49c1,.12,5.56.85,5.51,2.3C31.38,54.17,31,54.49,30.62,54.84Z" style="fill: #f7ccc0"/>
        <path d="M31.72,57.11c-1.55,2.3-9.08,6.53-13.89,8.62-3.45,1.49-9.15,3.63-11.15-1.22C3.59,57,22.43,55.74,26.24,55.17c1-.14,5.59-.69,5.94.72C32.27,56.25,32,56.66,31.72,57.11Z" style="fill: #f9d9d1"/>
        <path d="M39.68,55a6.74,6.74,0,1,1-7-6.49A6.74,6.74,0,0,1,39.68,55Z" style="fill: #c29e95"/>
      </g>
      <path d="M185.19,76.35S163,68.18,151.76,89.52C151.76,89.52,178.79,92.54,185.19,76.35Z" style="fill: #a37162"/>
      <path d="M70.69,114s-10-7.87-29.71,5.55C41,119.54,72.73,128.87,70.69,114Z" style="fill: #a37162"/>
      <path d="M101.13,128.6s-14.32-3.23-8.35-24.38C92.78,104.22,115.16,123.61,101.13,128.6Z" style="fill: #a37162"/>
      <path d="M55.94,98.81S52.25,79.5,65.37,70.05C65.37,70.05,71.12,105,55.94,98.81Z" style="fill: #a37162"/>
      <path d="M128.4,127.62s-10.81,1.13-17.7,17.46C110.7,145.08,139.58,136.94,128.4,127.62Z" style="fill: #a37162"/>
      <path d="M161.65,106.23s-1.88-10.9-26.67-7C135,99.21,150.35,124.58,161.65,106.23Z" style="fill: #a37162"/>
      <path d="M73.94,24.13s10.9-1.89,15.19,6.43C89.13,30.56,65.36,34.91,73.94,24.13Z" style="fill: #a37162"/>
      <path d="M116.77,22.59s-7.21,7.73,5.12,17.76C121.89,40.35,129,28.63,116.77,22.59Z" style="fill: #a37162"/>
      <path d="M134.86,40.38s6.81-4.73,14.79,9.44C149.65,49.82,137.81,53.24,134.86,40.38Z" style="fill: #a37162"/>
      <path d="M136.84,67.73s-9.64-4.64-16.22,6.57C120.62,74.3,133.18,76.84,136.84,67.73Z" style="fill: #a37162"/>
      <path d="M120.53,85.77a15.54,15.54,0,0,0-7.09,10.73S126.72,91.53,120.53,85.77Z" style="fill: #a37162"/>
      <path d="M94.14,17.42s3.11-10.58,14.73-6.52C108.87,10.9,106.11,17.49,94.14,17.42Z" style="fill: #a37162"/>
      <path d="M62.79,33s-8.19-6.18-.18-18.94C62.61,14.06,68,25.34,62.79,33Z" style="fill: #a37162"/>
      <path d="M104.63,90.7s-6.41-1.63-5.19-9.16C99.44,81.54,110.09,86.39,104.63,90.7Z" style="fill: #a37162"/>
      <path d="M231.54,80.78s-11.61,6.65-6.16,19.42C225.38,100.2,238.87,90.49,231.54,80.78Z" style="fill: #a37162"/>
      <path d="M237.47,124.44s-7.91-1.58-13.75,12.84C223.72,137.28,237.43,133.79,237.47,124.44Z" style="fill: #a37162"/>
      <path d="M237,99.78s8.59-.31,12.38,11.52C249.34,111.3,237.08,113.61,237,99.78Z" style="fill: #a37162"/>
      <path d="M226.24,157.93s7.88,8.51-3.77,17.16A19.78,19.78,0,0,1,226.24,157.93Z" style="fill: #a37162"/>
      <path d="M215.91,169.71s-5.6-10.26-17.06-6.49C198.85,163.22,208.63,175.21,215.91,169.71Z" style="fill: #a37162"/>
      <path d="M152.58,155.54S148.9,146.7,158,140C158,140,162.42,158.55,152.58,155.54Z" style="fill: #a37162"/>
      <path d="M202,177s-.11,7.48-11.83,14.26C190.14,191.21,191.76,174,202,177Z" style="fill: #a37162"/>
      <path d="M237.42,143.89s12.93,5.89,11.46,17.16C248.88,161.05,234.08,154.85,237.42,143.89Z" style="fill: #a37162"/>
      <path d="M233,176.58s-9.71.35-10.56,18.33C222.43,194.91,236.39,188.05,233,176.58Z" style="fill: #a37162"/>
      <path d="M235.14,194.82s8.48-3.29,15.61,7.67C250.75,202.49,238.24,208.17,235.14,194.82Z" style="fill: #a37162"/>
      <path d="M241.16,216.67s-8.33,7.4,0,21.31C241.18,238,249.66,224.22,241.16,216.67Z" style="fill: #a37162"/>
      <path d="M304.62,5.86S313,17,298.48,29C298.48,29,293,14.25,304.62,5.86Z" style="fill: #a37162"/>
      <path d="M287.11,18s-9.39-11.62-22-1.2C265.13,16.75,279.38,24.71,287.11,18Z" style="fill: #a37162"/>
      <path d="M275,28.86s6.88,11.22-6.18,22.16C268.86,51,264.32,35.73,275,28.86Z" style="fill: #a37162"/>
      <path d="M251.15,140.9s11.33-3.9,20.13,5.26C271.28,146.16,259.64,155.05,251.15,140.9Z" style="fill: #a37162"/>
      <path d="M267.28,159.76s-5,14.14,8.71,20.13C276,179.89,280.94,165.26,267.28,159.76Z" style="fill: #a37162"/>
      <path d="M290.6,170.39s8.46-14.26,21.71-6.26C312.31,164.13,303.71,174.41,290.6,170.39Z" style="fill: #a37162"/>
      <path d="M311.9,69.41s-8.42-12.16-22.14-5.68C289.76,63.73,299.24,77.85,311.9,69.41Z" style="fill: #a37162"/>
      <path d="M292,83.09s11.75,8.06,5.11,17.27C297.06,100.36,285.41,95.29,292,83.09Z" style="fill: #a37162"/>
      <path d="M283.08,99.87s-10.4,1.87-9.76,19.79C273.32,119.66,287.07,113.68,283.08,99.87Z" style="fill: #a37162"/>
      <path d="M290.46,125s6.72-7.22,12.92-1.46C303.38,123.57,295.18,131.34,290.46,125Z" style="fill: #a37162"/>
      <path d="M303.29,135s-1.72,7.54,9.45,13.12C312.74,148.16,313.82,136.65,303.29,135Z" style="fill: #a37162"/>
      <path d="M126.38,151.37s7.57,16.18-3.07,25.54C123.31,176.91,117.23,160.18,126.38,151.37Z" style="fill: #a37162"/>
      <path d="M114,196.19s10.86-2.89,16.22,7.39C130.26,203.58,116.94,207.55,114,196.19Z" style="fill: #a37162"/>
      <path d="M115.15,171.72s-9.53-1.65-12.43,14.9C102.72,186.62,114.6,184.2,115.15,171.72Z" style="fill: #a37162"/>
      <path d="M123.56,225.26s6.77-5.73,16.54,2.4C140.1,227.66,129.87,234.51,123.56,225.26Z" style="fill: #a37162"/>
      <path d="M116,209.08s-9.36,3.33-5.32,18.64C110.68,227.72,121.3,217.87,116,209.08Z" style="fill: #a37162"/>
      <path d="M141.54,240.07s.86,9.94,13.84,10.47C155.38,250.54,150.52,240.25,141.54,240.07Z" style="fill: #a37162"/>
      <path d="M163,240.79s-3.37-10.34,4-13.6C167,227.19,169.83,236.56,163,240.79Z" style="fill: #a37162"/>
      <path d="M179.25,228.32s5.13-5.12,13.65-.95C192.9,227.37,180.94,235.54,179.25,228.32Z" style="fill: #a37162"/>
      <path d="M200.76,4.1s-9.71,21.68-23.16,12.71C177.6,16.81,189.55,1.86,200.76,4.1Z" style="fill: #a37162"/>
      <path d="M191.8,57.91s20.18,15,6.72,36.63C198.52,94.54,182.08,74.36,191.8,57.91Z" style="fill: #a37162"/>
      <g>
        <path d="M223.71,39.68c-2.25-2.58-4.88-12.87-5.83-19.26-.69-4.57-1.42-12,5-12.86,9.91-1.29,5.43,21.5,4.89,26.22-.14,1.2-.95,6.86-2.73,6.82C224.56,40.6,224.15,40.18,223.71,39.68Z" style="fill: #f7ccc0"/>
        <path d="M221,41.08c-2.87-1.87-8.21-11-10.87-16.93-1.91-4.22-4.65-11.19,1.28-13.74,9.18-3.95,11.09,19.2,11.86,23.89.2,1.19,1,6.85-.76,7.31C222,41.73,221.51,41.44,221,41.08Z" style="fill: #f1a690"/>
        <path d="M225.13,44.81c2.24,2.57,4.87,12.87,5.83,19.25.68,4.58,1.41,12-5,12.87-9.9,1.29-5.42-21.5-4.89-26.22.14-1.2.95-6.86,2.74-6.83C224.27,43.89,224.69,44.31,225.13,44.81Z" style="fill: #f9d9d1"/>
        <path d="M227.89,43.41c2.86,1.86,8.2,11.05,10.87,16.93,1.9,4.22,4.64,11.19-1.29,13.74-9.17,3.94-11.09-19.2-11.86-23.89-.19-1.19-1-6.86.77-7.31C226.82,42.76,227.33,43.05,227.89,43.41Z" style="fill: #f1a690"/>
        <path d="M228.33,44.78c3.4.33,12.39,6,17.48,10,3.64,2.85,9.3,7.76,5.23,12.77-6.31,7.74-18.73-11.88-21.58-15.67-.73-1-4-5.64-2.72-6.84A2.14,2.14,0,0,1,228.33,44.78Z" style="fill: #f7ccc0"/>
        <path d="M229.37,41.87c3.36-.62,13.56,2.37,19.54,4.81,4.28,1.75,11.07,4.93,8.52,10.86-4,9.17-21.26-6.32-25-9.19-1-.73-5.42-4.31-4.48-5.83C228.15,42.13,228.72,42,229.37,41.87Z" style="fill: #f1a690"/>
        <path d="M221.86,40.72c-3.4-.32-12.4-6-17.48-10-3.64-2.85-9.3-7.76-5.23-12.76,6.31-7.75,18.73,11.87,21.58,15.67.73,1,4,5.63,2.71,6.83A2.1,2.1,0,0,1,221.86,40.72Z" style="fill: #f9d9d1"/>
        <path d="M220.81,43.64c-3.36.61-13.55-2.38-19.53-4.82C197,37.07,190.21,33.9,192.76,28c4-9.18,21.26,6.31,25,9.18,1,.73,5.42,4.32,4.48,5.83A2.12,2.12,0,0,1,220.81,43.64Z" style="fill: #f1a690"/>
        <path d="M222.56,45.07c-.21,3.41-5.58,12.58-9.39,17.79-2.73,3.74-7.45,9.55-12.59,5.65-8-6.05,11.26-19.11,15-22.08.94-.76,5.49-4.22,6.74-2.94A2.12,2.12,0,0,1,222.56,45.07Z" style="fill: #f7ccc0"/>
        <path d="M225.51,46c.72,3.33-1.93,13.62-4.17,19.68-1.61,4.34-4.56,11.22-10.57,8.86-9.3-3.64,5.61-21.45,8.35-25.32.7-1,4.14-5.56,5.69-4.67C225.21,44.8,225.37,45.36,225.51,46Z" style="fill: #f1a690"/>
        <path d="M226.75,39.57c.21-3.41,5.58-12.58,9.39-17.8,2.73-3.73,7.45-9.55,12.59-5.64,8,6.05-11.26,19.1-15,22.08-.94.76-5.5,4.22-6.74,2.94A2.13,2.13,0,0,1,226.75,39.57Z" style="fill: #f1a690"/>
        <path d="M223.8,38.62c-.73-3.34,1.93-13.63,4.17-19.68,1.61-4.34,4.56-11.22,10.57-8.87,9.3,3.65-5.61,21.45-8.36,25.33-.69,1-4.13,5.55-5.68,4.66C224.1,39.84,223.94,39.27,223.8,38.62Z" style="fill: #f9d9d1"/>
        <path d="M227.8,41.57c2.61-2.21,12.95-4.68,19.35-5.54,4.58-.61,12-1.23,12.78,5.19,1.14,9.92-21.58,5.09-26.29,4.48-1.2-.16-6.84-1.06-6.78-2.84C226.87,42.4,227.29,42,227.8,41.57Z" style="fill: #f9d9d1"/>
        <path d="M226.45,38.78c1.9-2.83,11.17-8,17.1-10.6,4.24-1.85,11.25-4.48,13.71,1.49,3.8,9.24-19.37,10.79-24.07,11.49-1.19.18-6.87.86-7.3-.88A2.12,2.12,0,0,1,226.45,38.78Z" style="fill: #f7ccc0"/>
        <path d="M221.48,42.56c-2.61,2.21-12.94,4.68-19.34,5.53-4.59.62-12,1.23-12.79-5.18-1.13-9.92,21.58-5.09,26.29-4.48,1.2.16,6.85,1,6.79,2.84C222.41,41.73,222,42.13,221.48,42.56Z" style="fill: #f7ccc0"/>
        <path d="M222.84,45.35c-1.91,2.83-11.18,8-17.1,10.6-4.24,1.84-11.26,4.47-13.71-1.49C188.22,45.22,211.4,43.67,216.09,43c1.2-.18,6.88-.86,7.31.87C223.51,44.29,223.21,44.79,222.84,45.35Z" style="fill: #f9d9d1"/>
        <path d="M232.62,42.75a8.29,8.29,0,1,1-8.58-8A8.3,8.3,0,0,1,232.62,42.75Z" style="fill: #c29e95"/>
      </g>
    </g>
  </g>
</svg>
