<svg id="PRINT" xmlns="http://www.w3.org/2000/svg" xmlns:xlink="http://www.w3.org/1999/xlink" viewBox="0 0 188.24 109.18">
  <defs>
    <clipPath id="clip-path">
      <rect x="-31.29" y="0.12" width="220.24" height="123.88" style="fill: none"/>
    </clipPath>
  </defs>
  <title>sup-der</title>
  <rect x="-433.43" y="-30.94" width="623.62" height="870.24" style="fill: none"/>
  <g style="clip-path: url(#clip-path)">
    <g style="opacity: 0.8">
      <path d="M57.49,17.78C47.7,28,45.37,56.58,57.88,73.51,66.34,85,82.11,88.06,93.79,79.91A20.64,20.64,0,0,0,98.9,51.18a16.5,16.5,0,0,0-23-4.09,13.19,13.19,0,0,0-3.27,18.38,10.55,10.55,0,0,0,14.7,2.62" style="fill: none;stroke: #a37162;stroke-linecap: round;stroke-linejoin: round;stroke-width: 2.1775700000000002px"/>
      <path d="M266.79-106.11c-64.61-5-117,45.61-119.6,83.31A54.74,54.74,0,0,0,198,35.65,43.8,43.8,0,0,0,244.71-5a35,35,0,0,0-32.49-37.4,28,28,0,0,0-29.92,26A22.42,22.42,0,0,0,203.09,7.56,17.94,17.94,0,0,0,222.24-9.08,14.35,14.35,0,0,0,208.93-24.4a11.48,11.48,0,0,0-12.25,10.65,9.17,9.17,0,0,0,8.51,9.8" style="fill: none;stroke: #a37162;stroke-linecap: round;stroke-linejoin: round;stroke-width: 2.1775700000000002px"/>
      <path d="M134.07-57.12c16.31,23.49,17.15,60.47,2.85,79.43a34.22,34.22,0,0,1-48.09,6.61A27.69,27.69,0,0,1,83.52-9.74,21.89,21.89,0,0,1,114.29-14a17.72,17.72,0,0,1,3.4,24.74A14,14,0,0,1,98,13.48" style="fill: none;stroke: #a37162;stroke-linecap: round;stroke-linejoin: round;stroke-width: 2.1775700000000002px"/>
      <path d="M150.43,2.08C136.67,27.14,139.69,64,155.89,81.37a34.16,34.16,0,0,0,15.6,9.57" style="fill: none;stroke: #a37162;stroke-linecap: round;stroke-linejoin: round;stroke-width: 2.1775700000000002px"/>
      <path d="M83.16-13.33C76.19,5.56,51.82,25.2,35.09,24.6A24,24,0,0,1,22.8,20.72" style="fill: none;stroke: #a37162;stroke-linecap: round;stroke-linejoin: round;stroke-width: 2.1775700000000002px"/>
      <g>
        <path d="M172.74,85.93c-1.28-1.58-2.62-7.74-3.05-11.56-.31-2.73-.58-7.17,3.23-7.53,5.91-.55,2.77,12.88,2.35,15.67-.11.71-.71,4.06-1.77,4C173.23,86.49,173,86.24,172.74,85.93Z" style="fill: #f7ccc0"/>
        <path d="M171.07,86.7c-1.66-1.17-4.64-6.73-6.09-10.28-1-2.55-2.52-6.74,1.06-8.13,5.53-2.14,6.17,11.64,6.53,14.43.09.72.42,4.1-.61,4.33C171.69,87.11,171.4,86.93,171.07,86.7Z" style="fill: #f1a690"/>
        <path d="M173.47,89c1.28,1.57,2.62,7.74,3.05,11.55.31,2.73.59,7.17-3.23,7.53-5.91.55-2.76-12.88-2.34-15.67.1-.71.71-4,1.76-4C173,88.44,173.22,88.7,173.47,89Z" style="fill: #f9d9d1"/>
        <path d="M175.14,88.23c1.66,1.17,4.64,6.74,6.09,10.29,1,2.54,2.52,6.74-1,8.12-5.53,2.15-6.18-11.63-6.53-14.43-.09-.71-.43-4.09.61-4.33C174.52,87.82,174.82,88,175.14,88.23Z" style="fill: #f1a690"/>
        <path d="M175.38,89.06c2,.26,7.22,3.82,10.16,6.29,2.1,1.77,5.35,4.8,2.83,7.69-3.91,4.46-10.86-7.45-12.48-9.76-.41-.59-2.27-3.43-1.46-4.12C174.64,89,175,89,175.38,89.06Z" style="fill: #f7ccc0"/>
        <path d="M176.06,87.35c2-.29,8,1.7,11.49,3.28,2.51,1.12,6.47,3.15,4.82,6.62-2.54,5.36-12.48-4.2-14.66-6-.56-.46-3.13-2.68-2.54-3.56A1.29,1.29,0,0,1,176.06,87.35Z" style="fill: #f1a690"/>
        <path d="M171.62,86.51c-2-.27-7.23-3.82-10.16-6.29-2.11-1.77-5.36-4.81-2.83-7.69,3.9-4.47,10.86,7.45,12.47,9.76.41.59,2.28,3.43,1.47,4.12A1.31,1.31,0,0,1,171.62,86.51Z" style="fill: #f9d9d1"/>
        <path d="M170.94,88.22c-2,.29-8-1.7-11.5-3.28-2.5-1.13-6.46-3.16-4.82-6.62,2.54-5.37,12.48,4.2,14.67,6,.55.46,3.12,2.68,2.53,3.56C171.67,88.09,171.33,88.16,170.94,88.22Z" style="fill: #f1a690"/>
        <path d="M171.94,89.11c-.2,2-3.58,7.35-5.95,10.36-1.7,2.16-4.63,5.51-7.59,3.08-4.59-3.76,7.09-11.1,9.35-12.79.57-.43,3.35-2.38,4.06-1.6A1.28,1.28,0,0,1,171.94,89.11Z" style="fill: #f7ccc0"/>
        <path d="M173.67,89.73c.36,2-1.43,8-2.89,11.6-1.05,2.54-2.95,6.56-6.47,5-5.44-2.36,3.79-12.61,5.5-14.85.44-.57,2.58-3.21,3.48-2.65C173.52,89,173.6,89.34,173.67,89.73Z" style="fill: #f1a690"/>
        <path d="M174.55,85.93c.2-2,3.58-7.35,5.95-10.36,1.7-2.16,4.63-5.52,7.59-3.09,4.6,3.76-7.09,11.1-9.35,12.79-.57.43-3.35,2.39-4.06,1.6A1.26,1.26,0,0,1,174.55,85.93Z" style="fill: #f1a690"/>
        <path d="M172.82,85.3c-.36-2,1.43-8,2.89-11.59,1-2.54,2.95-6.57,6.47-5,5.44,2.36-3.79,12.62-5.5,14.86-.44.57-2.58,3.21-3.48,2.65A1.29,1.29,0,0,1,172.82,85.3Z" style="fill: #f9d9d1"/>
        <path d="M175.13,87.14c1.6-1.26,7.79-2.5,11.6-2.87,2.74-.27,7.18-.48,7.48,3.35.46,5.91-12.92,2.56-15.7,2.1-.71-.12-4-.78-4-1.83C174.56,87.61,174.82,87.38,175.13,87.14Z" style="fill: #f9d9d1"/>
        <path d="M174.39,85.46c1.19-1.65,6.8-4.54,10.37-5.93,2.56-1,6.78-2.42,8.11,1.18,2.06,5.56-11.73,6-14.53,6.3-.71.08-4.1.36-4.32-.67A1.25,1.25,0,0,1,174.39,85.46Z" style="fill: #f7ccc0"/>
        <path d="M171.36,87.59c-1.6,1.26-7.79,2.5-11.6,2.88-2.74.26-7.19.47-7.48-3.36C151.82,81.2,165.2,84.55,168,85c.71.11,4,.77,4,1.83C171.93,87.12,171.67,87.35,171.36,87.59Z" style="fill: #f7ccc0"/>
        <path d="M172.1,89.28c-1.19,1.64-6.8,4.53-10.37,5.93-2.56,1-6.78,2.41-8.11-1.18-2.06-5.57,11.73-6,14.53-6.31.71-.08,4.1-.36,4.32.68A1.32,1.32,0,0,1,172.1,89.28Z" style="fill: #f9d9d1"/>
        <path d="M178,88A4.93,4.93,0,1,1,173,83,4.93,4.93,0,0,1,178,88Z" style="fill: #c29e95"/>
      </g>
      <g>
        <path d="M21.68,17.86c-1-1.21-2-5.92-2.34-8.84-.23-2.08-.44-5.48,2.48-5.75,4.51-.42,2.11,9.84,1.78,12-.08.55-.54,3.1-1.35,3.06C22.05,18.29,21.87,18.09,21.68,17.86Z" style="fill: #f7ccc0"/>
        <path d="M20.4,18.44c-1.27-.89-3.54-5.14-4.66-7.85-.79-1.95-1.92-5.16.81-6.22,4.23-1.64,4.72,8.9,5,11,.07.54.33,3.12-.46,3.3C20.87,18.76,20.65,18.62,20.4,18.44Z" style="fill: #f1a690"/>
        <path d="M22.23,20.21c1,1.2,2,5.92,2.34,8.83.23,2.09.44,5.48-2.48,5.75-4.51.43-2.11-9.84-1.79-12,.09-.54.55-3.1,1.36-3.05C21.86,19.78,22,20,22.23,20.21Z" style="fill: #f9d9d1"/>
        <path d="M23.51,19.62c1.27.89,3.54,5.14,4.66,7.86.79,1.94,1.92,5.15-.81,6.21-4.23,1.64-4.72-8.9-5-11-.07-.55-.33-3.13.46-3.31C23,19.3,23.26,19.44,23.51,19.62Z" style="fill: #f1a690"/>
        <path d="M23.69,20.25c1.54.2,5.52,2.92,7.77,4.8,1.6,1.36,4.09,3.68,2.16,5.88-3,3.41-8.3-5.69-9.54-7.46-.31-.45-1.73-2.62-1.11-3.15A1,1,0,0,1,23.69,20.25Z" style="fill: #f7ccc0"/>
        <path d="M24.21,18.94c1.53-.22,6.11,1.3,8.78,2.5,1.92.87,4.95,2.42,3.69,5.07-1.94,4.1-9.54-3.21-11.21-4.58-.42-.34-2.39-2-1.94-2.72C23.65,19,23.91,19,24.21,18.94Z" style="fill: #f1a690"/>
        <path d="M20.82,18.3c-1.54-.2-5.53-2.92-7.77-4.81C11.44,12.14,9,9.82,10.89,7.61c3-3.41,8.3,5.7,9.53,7.47.32.45,1.74,2.62,1.12,3.14A.92.92,0,0,1,20.82,18.3Z" style="fill: #f9d9d1"/>
        <path d="M20.3,19.6c-1.54.23-6.11-1.29-8.79-2.5C9.6,16.24,6.57,14.69,7.83,12c1.94-4.1,9.54,3.21,11.21,4.57.42.35,2.38,2.05,1.93,2.72C20.86,19.51,20.6,19.56,20.3,19.6Z" style="fill: #f1a690"/>
        <path d="M21.07,20.28c-.16,1.55-2.74,5.62-4.55,7.92-1.3,1.65-3.54,4.22-5.81,2.36-3.51-2.88,5.42-8.49,7.15-9.78.44-.32,2.56-1.82,3.1-1.22A1,1,0,0,1,21.07,20.28Z" style="fill: #f7ccc0"/>
        <path d="M22.39,20.76c.27,1.53-1.1,6.15-2.22,8.86-.8,1.95-2.25,5-4.94,3.85-4.16-1.8,2.9-9.64,4.21-11.35.33-.44,2-2.45,2.65-2C22.27,20.2,22.33,20.46,22.39,20.76Z" style="fill: #f1a690"/>
        <path d="M23.06,17.86c.15-1.55,2.73-5.62,4.55-7.92,1.3-1.65,3.53-4.22,5.8-2.36,3.51,2.87-5.42,8.48-7.15,9.77-.44.33-2.56,1.83-3.1,1.23A1,1,0,0,1,23.06,17.86Z" style="fill: #f1a690"/>
        <path d="M21.73,17.38c-.27-1.53,1.1-6.15,2.22-8.86.8-1.95,2.25-5,4.94-3.85C33.05,6.47,26,14.31,24.68,16c-.33.44-2,2.45-2.65,2C21.85,17.93,21.79,17.68,21.73,17.38Z" style="fill: #f9d9d1"/>
        <path d="M23.5,18.78c1.22-1,5.95-1.91,8.87-2.2,2.09-.2,5.49-.36,5.72,2.57.35,4.52-9.88,2-12,1.6-.54-.09-3.09-.59-3-1.4C23.07,19.14,23.26,19,23.5,18.78Z" style="fill: #f9d9d1"/>
        <path d="M22.93,17.49c.91-1.25,5.2-3.46,7.93-4.53,2-.76,5.18-1.84,6.2.9,1.58,4.26-9,4.58-11.11,4.82-.54.07-3.13.28-3.3-.51A1,1,0,0,1,22.93,17.49Z" style="fill: #f7ccc0"/>
        <path d="M20.62,19.13c-1.22,1-6,1.91-8.87,2.19-2.09.21-5.49.36-5.72-2.56-.35-4.52,9.88-2,12-1.6.54.09,3.09.59,3,1.4C21.05,18.76,20.86,18.94,20.62,19.13Z" style="fill: #f7ccc0"/>
        <path d="M21.19,20.41c-.91,1.26-5.2,3.47-7.93,4.54-2,.76-5.18,1.84-6.2-.91-1.58-4.25,9-4.58,11.11-4.82.54-.06,3.13-.27,3.29.52C21.51,19.94,21.36,20.17,21.19,20.41Z" style="fill: #f9d9d1"/>
        <path d="M25.67,19.4a3.77,3.77,0,1,1-3.77-3.77A3.76,3.76,0,0,1,25.67,19.4Z" style="fill: #c29e95"/>
      </g>
      <g>
        <path d="M93,38.42c-.82-1-1.68-5-2-7.42-.2-1.75-.38-4.6,2.07-4.83,3.79-.35,1.77,8.26,1.5,10-.06.46-.45,2.6-1.13,2.57C93.35,38.78,93.19,38.61,93,38.42Z" style="fill: #f7ccc0"/>
        <path d="M92,38.91c-1.06-.75-3-4.32-3.9-6.6-.67-1.63-1.62-4.32.67-5.21,3.55-1.37,4,7.47,4.19,9.26.06.46.28,2.63-.39,2.77A.78.78,0,0,1,92,38.91Z" style="fill: #f1a690"/>
        <path d="M93.5,40.39c.82,1,1.68,5,2,7.41.2,1.75.37,4.6-2.07,4.83-3.79.36-1.78-8.26-1.51-10.05C92,42.13,92.34,40,93,40,93.19,40,93.34,40.19,93.5,40.39Z" style="fill: #f9d9d1"/>
        <path d="M94.57,39.89c1.07.75,3,4.32,3.91,6.6.67,1.63,1.62,4.32-.68,5.21-3.54,1.38-4-7.46-4.19-9.25,0-.46-.27-2.63.4-2.78C94.18,39.63,94.37,39.75,94.57,39.89Z" style="fill: #f1a690"/>
        <path d="M94.72,40.42c1.29.17,4.64,2.45,6.52,4,1.35,1.13,3.44,3.08,1.82,4.93-2.51,2.86-7-4.78-8-6.26-.27-.38-1.46-2.2-.94-2.64C94.25,40.37,94.47,40.39,94.72,40.42Z" style="fill: #f7ccc0"/>
        <path d="M95.16,39.33c1.29-.19,5.13,1.09,7.37,2.1,1.61.72,4.15,2,3.1,4.25-1.63,3.44-8-2.7-9.41-3.84-.36-.29-2-1.72-1.63-2.28A.77.77,0,0,1,95.16,39.33Z" style="fill: #f1a690"/>
        <path d="M92.31,38.79c-1.29-.17-4.63-2.45-6.51-4-1.35-1.13-3.44-3.08-1.82-4.93,2.51-2.86,7,4.78,8,6.26.27.38,1.46,2.2.94,2.64C92.79,38.84,92.57,38.82,92.31,38.79Z" style="fill: #f9d9d1"/>
        <path d="M91.88,39.88c-1.29.19-5.13-1.09-7.38-2.1-1.6-.72-4.14-2-3.09-4.25,1.63-3.44,8,2.7,9.41,3.84.36.29,2,1.72,1.62,2.29A.77.77,0,0,1,91.88,39.88Z" style="fill: #f1a690"/>
        <path d="M92.52,40.45c-.13,1.3-2.29,4.72-3.82,6.65-1.09,1.39-3,3.54-4.87,2-2.94-2.41,4.55-7.12,6-8.21.37-.27,2.15-1.53,2.61-1A.76.76,0,0,1,92.52,40.45Z" style="fill: #f7ccc0"/>
        <path d="M93.63,40.85c.23,1.29-.92,5.17-1.86,7.44-.67,1.63-1.89,4.21-4.14,3.23C84.14,50,90.06,43.43,91.16,42c.28-.36,1.65-2.05,2.23-1.69A.79.79,0,0,1,93.63,40.85Z" style="fill: #f1a690"/>
        <path d="M94.19,38.42c.13-1.3,2.3-4.72,3.82-6.65,1.09-1.39,3-3.54,4.87-2,3,2.41-4.55,7.12-6,8.21-.37.27-2.16,1.53-2.61,1A.8.8,0,0,1,94.19,38.42Z" style="fill: #f1a690"/>
        <path d="M93.08,38c-.23-1.28.92-5.16,1.86-7.43.67-1.63,1.89-4.21,4.15-3.23,3.49,1.51-2.43,8.09-3.53,9.53-.28.36-1.65,2-2.23,1.69C93.18,38.48,93.13,38.26,93.08,38Z" style="fill: #f9d9d1"/>
        <path d="M94.57,39.19c1-.8,5-1.6,7.44-1.84,1.75-.17,4.61-.3,4.8,2.15.29,3.79-8.29,1.64-10.08,1.34-.45-.07-2.59-.49-2.54-1.17C94.2,39.5,94.37,39.35,94.57,39.19Z" style="fill: #f9d9d1"/>
        <path d="M94.09,38.11c.76-1,4.36-2.9,6.66-3.8,1.64-.64,4.34-1.55,5.2.76,1.32,3.57-7.53,3.84-9.33,4-.45,0-2.62.23-2.76-.43C93.82,38.51,93.94,38.32,94.09,38.11Z" style="fill: #f7ccc0"/>
        <path d="M92.15,39.48c-1,.81-5,1.61-7.45,1.85-1.75.17-4.6.3-4.79-2.15-.3-3.8,8.29-1.65,10.07-1.35.45.08,2.59.5,2.54,1.17C92.51,39.18,92.35,39.33,92.15,39.48Z" style="fill: #f7ccc0"/>
        <path d="M92.62,40.56c-.76,1.06-4.36,2.91-6.65,3.81-1.64.64-4.35,1.55-5.2-.76-1.32-3.57,7.52-3.84,9.32-4,.46-.05,2.63-.23,2.77.44A.82.82,0,0,1,92.62,40.56Z" style="fill: #f9d9d1"/>
        <path d="M96.39,39.71a3.16,3.16,0,1,1-3.16-3.16A3.17,3.17,0,0,1,96.39,39.71Z" style="fill: #c29e95"/>
      </g>
      <path d="M62.83-3.6S54.52-3,48.8,9.29C48.8,9.29,71.13,3.85,62.83-3.6Z" style="fill: #a37162"/>
      <path d="M146.44-3s-6-1.43-10.88,9.45C135.56,6.42,146.15,4.13,146.44-3Z" style="fill: #a37162"/>
      <path d="M136.92,22.31s5.79,6.73-3.37,13A15.15,15.15,0,0,1,136.92,22.31Z" style="fill: #a37162"/>
      <path d="M128.68,31.05s-4-8-12.88-5.44C115.8,25.61,123,35.06,128.68,31.05Z" style="fill: #a37162"/>
      <path d="M80.58,18.45S78,11.58,85.16,6.71C85.16,6.71,88,21,80.58,18.45Z" style="fill: #a37162"/>
      <path d="M117.8,36.2s-.28,5.73-9.45,10.6C108.35,46.8,110.07,33.62,117.8,36.2Z" style="fill: #a37162"/>
      <path d="M145.86,11.86s9.74,4.87,8.31,13.46C154.17,25.32,143,20.17,145.86,11.86Z" style="fill: #a37162"/>
      <path d="M141.57,36.77s-7.45,0-8.59,13.75C133,50.52,143.86,45.65,141.57,36.77Z" style="fill: #a37162"/>
      <path d="M142.71,50.8s6.59-2.29,11.74,6.3C154.45,57.1,144.72,61.11,142.71,50.8Z" style="fill: #a37162"/>
      <path d="M146.72,67.7s-6.58,5.44-.57,16.32C146.15,84,153,73.71,146.72,67.7Z" style="fill: #a37162"/>
      <path d="M156.46,10a15.4,15.4,0,0,1,15.27,4.59S162.57,21,156.46,10Z" style="fill: #a37162"/>
      <path d="M168.29,24.84s-4.2,10.69,6.11,15.66C174.4,40.5,178.6,29.42,168.29,24.84Z" style="fill: #a37162"/>
      <path d="M185.86,33.62s6.87-10.69,16.79-4.2C202.65,29.42,195.78,37.06,185.86,33.62Z" style="fill: #a37162"/>
      <path d="M187-1.12s5.35-5.34,9.93-.76C196.93-1.88,190.44,3.85,187-1.12Z" style="fill: #a37162"/>
      <path d="M60.63,14.54S66,27.13,57.58,34C57.58,34,53.38,21,60.63,14.54Z" style="fill: #a37162"/>
      <path d="M49.94,48.51s8.4-1.91,12.22,6.11C62.16,54.62,51.85,57.29,49.94,48.51Z" style="fill: #a37162"/>
      <path d="M51.47,29.81s-7.25-1.53-9.93,11.07C41.54,40.88,50.71,39.35,51.47,29.81Z" style="fill: #a37162"/>
      <path d="M56.43,71s5.35-4.2,12.6,2.29C69,73.33,61,78.29,56.43,71Z" style="fill: #a37162"/>
      <path d="M51.09,58.44s-7.26,2.29-4.58,14.13C46.51,72.57,54.91,65.31,51.09,58.44Z" style="fill: #a37162"/>
      <path d="M69.8,82.87s.38,7.64,10.3,8.4C80.1,91.27,76.67,83.26,69.8,82.87Z" style="fill: #a37162"/>
      <path d="M86.21,84s-2.29-8,3.44-10.31C89.65,73.71,91.56,81,86.21,84Z" style="fill: #a37162"/>
      <path d="M99,74.92s4.08-3.79,10.48-.36C109.47,74.56,100.09,80.49,99,74.92Z" style="fill: #a37162"/>
    </g>
  </g>
</svg>
