<svg id="PRINT" xmlns="http://www.w3.org/2000/svg" xmlns:xlink="http://www.w3.org/1999/xlink" viewBox="0 0 344.47 275.29">
  <defs>
    <clipPath id="clip-path">
      <rect x="-0.73" y="-0.72" width="345.18" height="273.18" style="fill: none"/>
    </clipPath>
  </defs>
  <title>sup-izq</title>
  <rect x="41.86" y="111.17" width="623.62" height="870.24" style="fill: none"/>
  <g style="clip-path: url(#clip-path)">
    <path d="M247.45,119.25c-19.75,0-37.23-5.16-46.89-13.86a1.09,1.09,0,0,1,1.46-1.62c19.54,17.61,72,18.89,100.92-3.89,20.42-16.08,24.6-44.54,9.52-64.8a36.85,36.85,0,0,0-51.52-7.55,29.28,29.28,0,0,0-6,40.91,23.2,23.2,0,0,0,32.43,4.75,18.31,18.31,0,0,0,3.76-25.63,1.1,1.1,0,0,1,.22-1.53,1.08,1.08,0,0,1,1.52.23,20.5,20.5,0,0,1-4.2,28.68,25.38,25.38,0,0,1-35.47-5.2,31.45,31.45,0,0,1,6.44-44,39,39,0,0,1,54.57,8c15.79,21.21,11.43,51-9.92,67.81-14.05,11.06-34.45,17.5-56,17.66Z" style="fill: #a37162"/>
    <path d="M79.34,209.63a74.48,74.48,0,0,1-70.64-51A59.77,59.77,0,0,1,46.6,83.21a48,48,0,0,1,60.63,30.46,38.6,38.6,0,0,1-24.51,48.78A31.11,31.11,0,0,1,43.43,142.7,25.1,25.1,0,0,1,59.36,111,20.3,20.3,0,0,1,85,123.88a16.48,16.48,0,0,1-10.45,20.79,1.09,1.09,0,1,1-.68-2.07,14.29,14.29,0,0,0,9.06-18,18.12,18.12,0,0,0-22.89-11.5A22.91,22.91,0,0,0,45.5,142,28.91,28.91,0,0,0,82,160.38a36.42,36.42,0,0,0,23.12-46A45.84,45.84,0,0,0,47.29,85.28,57.59,57.59,0,0,0,10.77,158,72.25,72.25,0,0,0,102,203.79,90.49,90.49,0,0,0,159.42,89.44c-9.16-27.68-36.54-55.11-73.24-73.38C37.86-8-18.15-12.22-67.49,4.51a1.09,1.09,0,0,1-1.38-.68,1.08,1.08,0,0,1,.68-1.38C-18.31-14.46,38.31-10.21,87.15,14.11c37.2,18.53,65,46.43,74.34,74.64a92.65,92.65,0,0,1-58.83,117.1A74.08,74.08,0,0,1,79.34,209.63Z" style="fill: #a37162"/>
    <path d="M178.55,68.72a51.56,51.56,0,0,1-29.89-9.5,41.32,41.32,0,0,1-9.75-57.8,33.67,33.67,0,0,1,46.75-7.89A26.83,26.83,0,0,1,192,31.07a1.09,1.09,0,0,1-1.77-1.27A24.66,24.66,0,0,0,184.4-4.69a31.48,31.48,0,0,0-43.72,7.38,39.11,39.11,0,0,0,9.24,54.75,49.82,49.82,0,0,0,69.17-11.67A61.38,61.38,0,0,0,229.78-.47a61.44,61.44,0,0,0-25.27-40.18C168.72-66,101.23-61.45,60.08-31a1.1,1.1,0,0,1-1.52-.23,1.08,1.08,0,0,1,.22-1.52c41.83-31,110.51-35.51,147-9.7A63.57,63.57,0,0,1,231.93-.84,63.6,63.6,0,0,1,220.86,47,51.91,51.91,0,0,1,178.55,68.72Z" style="fill: #a37162"/>
    <path d="M208.64,169.22a1.06,1.06,0,0,1-.56-.16,1.1,1.1,0,0,1-.37-1.5A43.19,43.19,0,0,0,214,145.32c.15-29.66-36.66-73.41-71.62-85.09a1.09,1.09,0,1,1,.69-2.07c17,5.69,35.21,18.91,49.89,36.27,14.83,17.53,23.29,36.09,23.22,50.9a45.41,45.41,0,0,1-6.58,23.36A1.11,1.11,0,0,1,208.64,169.22Z" style="fill: #a37162"/>
    <path d="M203.44,170.35c-2.16,1.86-10.75,4-16.09,4.78-3.82.55-10,1.13-10.7-4.22-1-8.27,17.95-4.43,21.89-4,1,.12,5.72.82,5.68,2.31C204.21,169.64,203.86,170,203.44,170.35Z" style="fill: #f7ccc0"/>
    <path d="M204.6,172.66c-1.57,2.38-9.26,6.8-14.17,9-3.53,1.57-9.36,3.83-11.46-1.13-3.25-7.67,16.07-9.17,20-9.79,1-.16,5.73-.77,6.1.67A1.82,1.82,0,0,1,204.6,172.66Z" style="fill: #f1a690"/>
    <path d="M207.73,169.19c2.16-1.86,10.76-4,16.09-4.78,3.82-.55,10-1.13,10.7,4.22,1,8.27-18,4.43-21.89,4-1-.12-5.72-.82-5.68-2.31C207,169.9,207.31,169.55,207.73,169.19Z" style="fill: #f9d9d1"/>
    <path d="M206.57,166.88c1.57-2.38,9.26-6.8,14.17-9,3.53-1.57,9.36-3.83,11.46,1.13,3.25,7.67-16.07,9.17-20,9.79-1,.16-5.73.77-6.1-.67A1.82,1.82,0,0,1,206.57,166.88Z" style="fill: #f1a690"/>
    <path d="M207.72,166.52c.29-2.84,5.05-10.31,8.39-14.54,2.4-3,6.52-7.72,10.68-4.3,6.43,5.29-10,15.56-13.17,17.93-.81.6-4.72,3.34-5.72,2.23A1.81,1.81,0,0,1,207.72,166.52Z" style="fill: #f7ccc0"/>
    <path d="M205.29,165.63c-.5-2.8,2-11.29,4.11-16.27,1.47-3.57,4.15-9.21,9.09-7.06,7.63,3.34-5.36,17.71-7.77,20.85-.62.8-3.63,4.5-4.89,3.71C205.51,166.66,205.39,166.18,205.29,165.63Z" style="fill: #f1a690"/>
    <path d="M204.3,171.9c-.28,2.83-5.05,10.31-8.39,14.53-2.39,3-6.51,7.73-10.67,4.31-6.44-5.3,10-15.57,13.17-17.93.81-.61,4.71-3.34,5.71-2.24A1.75,1.75,0,0,1,204.3,171.9Z" style="fill: #f9d9d1"/>
    <path d="M206.73,172.78c.5,2.81-2,11.3-4.1,16.27-1.48,3.57-4.16,9.22-9.09,7.06-7.64-3.33,5.36-17.7,7.77-20.84.61-.8,3.62-4.5,4.88-3.71C206.52,171.76,206.63,172.23,206.73,172.78Z" style="fill: #f1a690"/>
    <path d="M207.93,171.33c2.85.19,10.47,4.71,14.8,7.91,3.11,2.3,7.94,6.26,4.66,10.53-5.08,6.6-15.89-9.48-18.36-12.57-.62-.79-3.49-4.61-2.41-5.64A1.71,1.71,0,0,1,207.93,171.33Z" style="fill: #f7ccc0"/>
    <path d="M208.74,168.88c2.78-.59,11.35,1.67,16.4,3.57,3.61,1.35,9.34,3.85,7.35,8.85-3.09,7.74-17.87-4.78-21.09-7.08-.82-.59-4.62-3.48-3.87-4.77C207.72,169.12,208.19,169,208.74,168.88Z" style="fill: #f1a690"/>
    <path d="M203.36,167.81c-2.84-.19-10.47-4.7-14.8-7.91-3.1-2.29-7.93-6.25-4.65-10.52,5.08-6.61,15.89,9.47,18.35,12.57.63.79,3.49,4.6,2.42,5.64A1.77,1.77,0,0,1,203.36,167.81Z" style="fill: #f1a690"/>
    <path d="M202.56,170.27c-2.79.59-11.36-1.67-16.4-3.57-3.61-1.36-9.34-3.85-7.35-8.85,3.09-7.75,17.87,4.77,21.09,7.08.82.59,4.62,3.47,3.87,4.76C203.58,170,203.1,170.15,202.56,170.27Z" style="fill: #f9d9d1"/>
    <path d="M205,166.94c-1.82-2.18-3.84-10.82-4.52-16.16-.49-3.83-1-10.06,4.38-10.64,8.28-.9,4.15,18,3.62,22-.14,1-.91,5.71-2.4,5.65C205.73,167.72,205.39,167.37,205,166.94Z" style="fill: #f9d9d1"/>
    <path d="M202.71,168.06c-2.36-1.6-6.66-9.36-8.77-14.31-1.52-3.55-3.68-9.41,1.31-11.43,7.72-3.13,8.91,16.2,9.47,20.13.15,1,.69,5.73-.76,6.08A1.77,1.77,0,0,1,202.71,168.06Z" style="fill: #f7ccc0"/>
    <path d="M205.84,172.22c1.83,2.19,3.84,10.82,4.53,16.16.49,3.83,1,10.06-4.39,10.64-8.28.9-4.14-18-3.61-22,.13-1,.91-5.7,2.39-5.65C205.15,171.44,205.48,171.79,205.84,172.22Z" style="fill: #f7ccc0"/>
    <path d="M208.17,171.1c2.35,1.61,6.65,9.36,8.77,14.31,1.51,3.55,3.68,9.41-1.31,11.43-7.72,3.13-8.92-16.2-9.48-20.12-.14-1-.68-5.74.77-6.09A1.77,1.77,0,0,1,208.17,171.1Z" style="fill: #f9d9d1"/>
    <path d="M206.05,162.93a6.91,6.91,0,1,1-6.7,7.12A6.91,6.91,0,0,1,206.05,162.93Z" style="fill: #c29e95"/>
    <path d="M237.19,38.15c-1.81,1.56-9,3.36-13.51,4-3.2.46-8.42.94-9-3.54-.87-6.94,15.07-3.72,18.37-3.33.84.1,4.8.69,4.77,1.94C237.83,37.55,237.54,37.84,237.19,38.15Z" style="fill: #f7ccc0"/>
    <path d="M238.15,40.08c-1.31,2-7.76,5.71-11.89,7.55-3,1.32-7.85,3.21-9.61-1-2.73-6.44,13.48-7.69,16.77-8.21.83-.14,4.8-.65,5.11.56C238.62,39.34,238.41,39.69,238.15,40.08Z" style="fill: #f1a690"/>
    <path d="M240.78,37.17c1.81-1.56,9-3.36,13.51-4,3.2-.46,8.42-.94,9,3.54.87,6.94-15.07,3.72-18.37,3.32-.84-.1-4.8-.68-4.77-1.93C240.14,37.77,240.43,37.48,240.78,37.17Z" style="fill: #f9d9d1"/>
    <path d="M239.82,35.23c1.31-2,7.76-5.7,11.89-7.54,3-1.32,7.85-3.21,9.61.95,2.73,6.44-13.48,7.69-16.77,8.21-.83.14-4.8.65-5.11-.56A1.48,1.48,0,0,1,239.82,35.23Z" style="fill: #f1a690"/>
    <path d="M240.78,34.93c.24-2.38,4.24-8.65,7-12.2,2-2.54,5.47-6.48,9-3.61,5.4,4.44-8.39,13.06-11,15.05-.68.5-4,2.8-4.8,1.87A1.49,1.49,0,0,1,240.78,34.93Z" style="fill: #f7ccc0"/>
    <path d="M238.74,34.19c-.42-2.36,1.71-9.48,3.44-13.66,1.24-3,3.49-7.73,7.63-5.92,6.41,2.8-4.49,14.86-6.52,17.49-.51.67-3,3.78-4.1,3.12A1.48,1.48,0,0,1,238.74,34.19Z" style="fill: #f1a690"/>
    <path d="M237.91,39.45c-.24,2.38-4.24,8.65-7,12.19-2,2.54-5.47,6.49-9,3.62-5.4-4.45,8.38-13.07,11.05-15,.68-.51,4-2.8,4.8-1.88A1.51,1.51,0,0,1,237.91,39.45Z" style="fill: #f9d9d1"/>
    <path d="M240,40.19c.42,2.35-1.72,9.48-3.45,13.65-1.24,3-3.49,7.74-7.63,5.93-6.41-2.8,4.5-14.86,6.52-17.5.52-.67,3.05-3.77,4.11-3.11C239.77,39.33,239.86,39.73,240,40.19Z" style="fill: #f1a690"/>
    <path d="M241,39c2.38.16,8.78,4,12.42,6.64,2.6,1.93,6.66,5.25,3.9,8.83C253,60,244,46.49,241.88,43.89c-.53-.66-2.93-3.86-2-4.73A1.5,1.5,0,0,1,241,39Z" style="fill: #f7ccc0"/>
    <path d="M241.63,36.91c2.34-.5,9.53,1.4,13.76,3,3,1.15,7.84,3.24,6.17,7.44-2.59,6.49-15-4-17.7-6-.68-.49-3.87-2.91-3.24-4C240.78,37.12,241.17,37,241.63,36.91Z" style="fill: #f1a690"/>
    <path d="M237.12,36c-2.38-.16-8.79-4-12.42-6.64-2.61-1.93-6.66-5.25-3.91-8.84,4.27-5.54,13.34,8,15.41,10.56.52.66,2.93,3.86,2,4.73A1.5,1.5,0,0,1,237.12,36Z" style="fill: #f1a690"/>
    <path d="M236.45,38.08c-2.34.49-9.54-1.4-13.77-3-3-1.14-7.84-3.23-6.16-7.43,2.58-6.5,15,4,17.69,6,.69.49,3.88,2.91,3.25,4C237.3,37.87,236.9,38,236.45,38.08Z" style="fill: #f9d9d1"/>
    <path d="M238.52,35.29c-1.53-1.84-3.22-9.08-3.8-13.57-.41-3.21-.81-8.44,3.68-8.93,6.95-.75,3.48,15.13,3,18.42-.12.84-.76,4.79-2,4.74C239.11,35.94,238.82,35.64,238.52,35.29Z" style="fill: #f9d9d1"/>
    <path d="M236.57,36.22c-2-1.34-5.58-7.85-7.36-12-1.27-3-3.09-7.9,1.1-9.6,6.48-2.63,7.48,13.6,7.95,16.89.12.84.58,4.82-.64,5.11C237.31,36.7,237,36.49,236.57,36.22Z" style="fill: #f7ccc0"/>
    <path d="M239.2,39.72c1.53,1.83,3.22,9.07,3.8,13.56.41,3.21.81,8.44-3.68,8.93-6.95.76-3.48-15.13-3-18.42.12-.84.77-4.79,2-4.74C238.62,39.06,238.9,39.36,239.2,39.72Z" style="fill: #f7ccc0"/>
    <path d="M241.15,38.78c2,1.34,5.59,7.85,7.36,12,1.28,3,3.09,7.89-1.1,9.59-6.48,2.63-7.48-13.6-7.95-16.89-.12-.84-.57-4.82.64-5.11A1.47,1.47,0,0,1,241.15,38.78Z" style="fill: #f9d9d1"/>
    <path d="M239.37,31.92a5.8,5.8,0,1,1-5.62,6A5.8,5.8,0,0,1,239.37,31.92Z" style="fill: #c29e95"/>
    <path d="M55.25,230.51c-3,2.56-14.75,5.5-22.06,6.56-5.24.75-13.78,1.54-14.69-5.79-1.41-11.34,24.63-6.07,30-5.43,1.37.17,7.84,1.13,7.79,3.17C56.31,229.54,55.83,230,55.25,230.51Z" style="fill: #f7ccc0"/>
    <path d="M56.84,233.68C54.69,237,44.15,243,37.4,246c-4.84,2.16-12.83,5.25-15.71-1.55-4.46-10.52,22-12.57,27.4-13.42,1.37-.22,7.86-1.06,8.37.91A2.43,2.43,0,0,1,56.84,233.68Z" style="fill: #f1a690"/>
    <path d="M61.14,228.92c3-2.55,14.75-5.5,22.06-6.55,5.24-.76,13.78-1.55,14.69,5.78,1.41,11.34-24.63,6.08-30,5.43-1.37-.16-7.84-1.12-7.79-3.16C60.08,229.89,60.56,229.42,61.14,228.92Z" style="fill: #f9d9d1"/>
    <path d="M59.55,225.75c2.15-3.26,12.69-9.32,19.44-12.33,4.83-2.16,12.83-5.25,15.71,1.55,4.46,10.53-22,12.57-27.4,13.43-1.37.22-7.86,1.06-8.37-.92A2.43,2.43,0,0,1,59.55,225.75Z" style="fill: #f1a690"/>
    <path d="M61.12,225.25c.4-3.88,6.93-14.14,11.52-19.93,3.28-4.15,8.93-10.6,14.64-5.9,8.82,7.26-13.71,21.35-18.07,24.59-1.11.83-6.47,4.58-7.84,3.06A2.46,2.46,0,0,1,61.12,225.25Z" style="fill: #f7ccc0"/>
    <path d="M57.79,224c-.68-3.84,2.8-15.49,5.63-22.32,2-4.89,5.7-12.63,12.47-9.68,10.48,4.58-7.35,24.29-10.65,28.6-.85,1.09-5,6.17-6.71,5.08C58.09,225.45,57.93,224.79,57.79,224Z" style="fill: #f1a690"/>
    <path d="M56.44,232.64c-.39,3.89-6.93,14.14-11.51,19.93-3.29,4.16-8.94,10.6-14.64,5.91-8.83-7.26,13.7-21.35,18.06-24.6,1.11-.82,6.47-4.58,7.84-3.06A2.46,2.46,0,0,1,56.44,232.64Z" style="fill: #f9d9d1"/>
    <path d="M59.77,233.85c.68,3.85-2.8,15.5-5.63,22.32-2,4.89-5.7,12.64-12.47,9.68-10.48-4.57,7.35-24.28,10.66-28.59.84-1.1,5-6.18,6.7-5.09C59.47,232.45,59.63,233.1,59.77,233.85Z" style="fill: #f1a690"/>
    <path d="M61.42,231.86c3.9.26,14.36,6.46,20.3,10.85,4.26,3.15,10.88,8.59,6.38,14.44-7,9.06-21.79-13-25.17-17.25-.87-1.08-4.79-6.31-3.32-7.73A2.45,2.45,0,0,1,61.42,231.86Z" style="fill: #f7ccc0"/>
    <path d="M62.52,228.49c3.82-.81,15.58,2.29,22.49,4.9,5,1.86,12.82,5.28,10.08,12.14-4.22,10.62-24.51-6.55-28.92-9.71-1.13-.81-6.33-4.77-5.31-6.54C61.13,228.83,61.77,228.65,62.52,228.49Z" style="fill: #f1a690"/>
    <path d="M55.15,227c-3.9-.26-14.36-6.45-20.3-10.85C30.59,213,24,207.6,28.46,201.74c7-9.05,21.79,13,25.18,17.25.86,1.08,4.79,6.32,3.32,7.74A2.41,2.41,0,0,1,55.15,227Z" style="fill: #f1a690"/>
    <path d="M54.05,230.4c-3.83.81-15.58-2.29-22.5-4.89-4.95-1.87-12.81-5.29-10.08-12.15,4.23-10.62,24.51,6.55,28.93,9.72,1.12.8,6.33,4.76,5.3,6.53C55.44,230.06,54.79,230.24,54.05,230.4Z" style="fill: #f9d9d1"/>
    <path d="M57.44,225.84c-2.51-3-5.27-14.84-6.21-22.17-.67-5.25-1.33-13.8,6-14.59,11.36-1.24,5.69,24.72,5,30.1C62,220.55,61,227,58.91,226.93,58.39,226.91,57.93,226.42,57.44,225.84Z" style="fill: #f9d9d1"/>
    <path d="M54.25,227.37c-3.23-2.2-9.13-12.83-12-19.62-2.08-4.87-5-12.91,1.79-15.69,10.59-4.29,12.23,22.23,13,27.61.2,1.37.94,7.87-1,8.35A2.42,2.42,0,0,1,54.25,227.37Z" style="fill: #f7ccc0"/>
    <path d="M58.54,233.08c2.51,3,5.28,14.84,6.21,22.17.68,5.25,1.34,13.79-6,14.59-11.36,1.24-5.69-24.72-5-30.11.18-1.37,1.25-7.82,3.29-7.74C57.59,232,58.05,232.49,58.54,233.08Z" style="fill: #f7ccc0"/>
    <path d="M61.74,231.55c3.23,2.19,9.12,12.83,12,19.62,2.08,4.87,5,12.91-1.8,15.69-10.59,4.29-12.23-22.24-13-27.61-.19-1.37-.94-7.87,1.05-8.35C60.53,230.77,61.11,231.12,61.74,231.55Z" style="fill: #f9d9d1"/>
    <path d="M58.83,220.34a9.48,9.48,0,1,1-9.19,9.77A9.48,9.48,0,0,1,58.83,220.34Z" style="fill: #c29e95"/>
    <path d="M90,15.65S78.31,46.88,108.27,62.81C108.27,62.81,112.72,24.77,90,15.65Z" style="fill: #a37162"/>
    <path d="M142.1,177.11s-11.15,14,7.6,41.87C149.7,219,163.07,174.36,142.1,177.11Z" style="fill: #a37162"/>
    <path d="M162.9,134.37s-4.64,20.14-34.38,11.58C128.52,146,156,114.58,162.9,134.37Z" style="fill: #a37162"/>
    <path d="M120.63,197.77s-27.21,5-40.41-13.5C80.22,184.27,129.45,176.45,120.63,197.77Z" style="fill: #a37162"/>
    <path d="M161.73,96s1.51,15.22,24.45,25C186.18,121,174.93,80.31,161.73,96Z" style="fill: #a37162"/>
    <path d="M131.87,49s-15.36,2.58-10.08,37.5C121.79,86.5,157.62,65.05,131.87,49Z" style="fill: #a37162"/>
    <path d="M15.62,171.86s-2.57-15.36,9.18-21.33C24.8,150.53,30.73,184,15.62,171.86Z" style="fill: #a37162"/>
    <path d="M13.78,111.57s10.84,10.19,25-7.09C38.82,104.48,22.38,94.46,13.78,111.57Z" style="fill: #a37162"/>
    <path d="M39,86.23s-6.61-9.62,13.4-20.76C52.37,65.47,57.09,82.17,39,86.23Z" style="fill: #a37162"/>
    <path d="M77.49,83.65s-6.61,13.53,9.12,22.88C86.61,106.53,90.28,88.87,77.49,83.65Z" style="fill: #a37162"/>
    <path d="M102.76,106.73a21.84,21.84,0,0,0,15,10.07S110.91,98.06,102.76,106.73Z" style="fill: #a37162"/>
    <path d="M6.33,143.37s-14.87-4.45-9.06-20.77C-2.73,122.6,6.52,126.52,6.33,143.37Z" style="fill: #a37162"/>
    <path d="M28,187.62s-8.77,11.5-26.67.12C1.37,187.74,17.28,180.23,28,187.62Z" style="fill: #a37162"/>
    <path d="M109.58,129.16s-2.35,9-12.93,7.24C96.65,136.4,103.56,121.45,109.58,129.16Z" style="fill: #a37162"/>
    <path d="M201.22,62.14s-12.48,5.12-21.82-7.75C179.4,54.39,205.53,48.32,201.22,62.14Z" style="fill: #a37162"/>
    <path d="M231.73-7.22s10.53.21,20,16.76C251.71,9.54,227.43,7.12,231.73-7.22Z" style="fill: #a37162"/>
    <path d="M195.15,99s22.84-10.52,35.93,4.52C231.08,103.51,207.48,112,195.15,99Z" style="fill: #a37162"/>
    <path d="M258.15,116.71s-4-15.31,10.53-22.78C268.68,93.93,274.17,112.71,258.15,116.71Z" style="fill: #a37162"/>
    <path d="M223.71,115s-2.39,13.41,20.89,17.61C244.6,132.57,241.28,115.83,223.71,115Z" style="fill: #a37162"/>
    <path d="M299.15,103.53s-8-9.58,3.5-23.27C302.65,80.26,312.22,94.71,299.15,103.53Z" style="fill: #a37162"/>
    <path d="M276.32,114.05s4.61,13.19,26.2,7.62C302.52,121.67,288.72,106.65,276.32,114.05Z" style="fill: #a37162"/>
    <path d="M320.14,78.32s14-1.13,14.84-19.4C335,58.92,320.45,65.68,320.14,78.32Z" style="fill: #a37162"/>
    <path d="M321.32,48.11s-14.6,4.66-19.13-5.73C302.19,42.38,315.41,38.47,321.32,48.11Z" style="fill: #a37162"/>
    <path d="M303.88,25.15s-7.17-7.27-1.24-19.22C302.64,5.93,314.05,22.83,303.88,25.15Z" style="fill: #a37162"/>
    <path d="M-11.61-6.83S18.83,7,6.1,25.88C6.1,25.88-14.85,8.94-11.61-6.83Z" style="fill: #a37162"/>
    <path d="M64.08,6.2S85.27-22.09,115.68-3C115.68-3,87.15,20,64.08,6.2Z" style="fill: #a37162"/>
    <path d="M44.19-34.75C45-30,40.75-15.69,37.27-7.29c-2.49,6-7,15.54-15.34,11.91C9-1,31-25.26,35-30.56c1-1.35,6.12-7.6,8.25-6.26C43.83-36.48,44-35.68,44.19-34.75Z" style="fill: #f1a690"/>
    <path d="M42.69-35.7C45.77-32,49.18-17.45,50.33-8.43c.83,6.46,1.64,17-7.39,18-14,1.52-7-30.42-6.11-37,.23-1.68,1.53-9.63,4-9.53C41.52-37,42.09-36.42,42.69-35.7Z" style="fill: #f7ccc0"/>
    <path d="M46.62-37.59c4,2.71,11.22,15.79,14.8,24.15,2.56,6,6.21,15.88-2.21,19.29-13,5.29-15-27.35-16-34C43-29.8,42.06-37.8,44.51-38.39A3,3,0,0,1,46.62-37.59Z" style="fill: #f9d9d1"/>
  </g>
</svg>
